<svg xmlns:xlink="http://www.w3.org/1999/xlink" xmlns="http://www.w3.org/2000/svg" width="701.5" height="431"><g transform="translate(60, 10)"><g class="x axis" transform="translate(0, 381)" fill="none" font-size="10" font-family="sans-serif" text-anchor="middle"><path class="domain" stroke="#212529" d="M0.5,6V0.5H572V6" fill="none"></path><g class="tick" opacity="1" transform="translate(25.06920505872435,0)" fill="none"><line stroke="#212529" y2="6" fill="none"></line><text fill="#212529" y="9" dy="0.71em">-0.05</text></g><g class="tick" opacity="1" transform="translate(98.85484389678193,0)" fill="none"><line stroke="#212529" y2="6" fill="none"></line><text fill="#212529" y="9" dy="0.71em">-0.04</text></g><g class="tick" opacity="1" transform="translate(172.6404827348395,0)" fill="none"><line stroke="#212529" y2="6" fill="none"></line><text fill="#212529" y="9" dy="0.71em">-0.03</text></g><g class="tick" opacity="1" transform="translate(246.42612157289705,0)" fill="none"><line stroke="#212529" y2="6" fill="none"></line><text fill="#212529" y="9" dy="0.71em">-0.02</text></g><g class="tick" opacity="1" transform="translate(320.2117604109546,0)" fill="none"><line stroke="#212529" y2="6" fill="none"></line><text fill="#212529" y="9" dy="0.71em">-0.01</text></g><g class="tick" opacity="1" transform="translate(393.99739924901223,0)" fill="none"><line stroke="#212529" y2="6" fill="none"></line><text fill="#212529" y="9" dy="0.71em">0.00</text></g><g class="tick" opacity="1" transform="translate(467.78303808706977,0)" fill="none"><line stroke="#212529" y2="6" fill="none"></line><text fill="#212529" y="9" dy="0.71em">0.01</text></g><g class="tick" opacity="1" transform="translate(541.5686769251274,0)" fill="none"><line stroke="#212529" y2="6" fill="none"></line><text fill="#212529" y="9" dy="0.71em">0.02</text></g></g><text transform="translate(285.75, 411)" font-size="0.8em" style="text-anchor: middle;">Effect of PC on exposure</text><g class="y axis" fill="none" font-size="10" font-family="sans-serif" text-anchor="end"><path class="domain" stroke="#212529" d="M-6,381.5H0.5V0.5H-6" fill="none"></path><g class="tick" opacity="1" transform="translate(0,340.1944507831315)" fill="none"><line stroke="#212529" x2="-6" fill="none"></line><text fill="#212529" x="-9" dy="0.32em">-0.04</text></g><g class="tick" opacity="1" transform="translate(0,297.8696836681999)" fill="none"><line stroke="#212529" x2="-6" fill="none"></line><text fill="#212529" x="-9" dy="0.32em">-0.03</text></g><g class="tick" opacity="1" transform="translate(0,255.5449165532684)" fill="none"><line stroke="#212529" x2="-6" fill="none"></line><text fill="#212529" x="-9" dy="0.32em">-0.02</text></g><g class="tick" opacity="1" transform="translate(0,213.22014943833685)" fill="none"><line stroke="#212529" x2="-6" fill="none"></line><text fill="#212529" x="-9" dy="0.32em">-0.01</text></g><g class="tick" opacity="1" transform="translate(0,170.8953823234053)" fill="none"><line stroke="#212529" x2="-6" fill="none"></line><text fill="#212529" x="-9" dy="0.32em">0.00</text></g><g class="tick" opacity="1" transform="translate(0,128.57061520847373)" fill="none"><line stroke="#212529" x2="-6" fill="none"></line><text fill="#212529" x="-9" dy="0.32em">0.01</text></g><g class="tick" opacity="1" transform="translate(0,86.24584809354216)" fill="none"><line stroke="#212529" x2="-6" fill="none"></line><text fill="#212529" x="-9" dy="0.32em">0.02</text></g><g class="tick" opacity="1" transform="translate(0,43.92108097861061)" fill="none"><line stroke="#212529" x2="-6" fill="none"></line><text fill="#212529" x="-9" dy="0.32em">0.03</text></g><g class="tick" opacity="1" transform="translate(0,1.5963138636790961)" fill="none"><line stroke="#212529" x2="-6" fill="none"></line><text fill="#212529" x="-9" dy="0.32em">0.04</text></g></g><text transform="rotate(-90)" x="-190.5" y="-60" dy="1em" font-size="0.8em" style="text-anchor: middle;">Effect of PC on outcome</text><g><line class="xerr" x1="353.6143969377069" x2="362.24218284780943" y1="181.18511707304245" y2="181.18511707304245" stroke="#DDDDDD"></line><line class="xerr" x1="388.22024507803184" x2="399.8333016225401" y1="176.41574778194698" y2="176.41574778194698" stroke="#DDDDDD"></line><line class="xerr" x1="375.93529997788477" x2="387.63852249882564" y1="185.31393179510846" y2="185.31393179510846" stroke="#DDDDDD"></line><line class="xerr" x1="357.1903021517292" x2="371.77596756761557" y1="172.80278434968983" y2="172.80278434968983" stroke="#DDDDDD"></line><line class="xerr" x1="405.320756930435" x2="420.49330236826955" y1="157.72957502775947" y2="157.72957502775947" stroke="#DDDDDD"></line><line class="xerr" x1="329.5494229315819" x2="347.4697904286472" y1="192.9245086792265" y2="192.9245086792265" stroke="#DDDDDD"></line><line class="xerr" x1="426.42707473741285" x2="448.5977653776103" y1="174.80730341010877" y2="174.80730341010877" stroke="#DDDDDD"></line><line class="xerr" x1="377.13560999427625" x2="402.85134278149104" y1="182.09847004116205" y2="182.09847004116205" stroke="#DDDDDD"></line><line class="xerr" x1="382.742906571058" x2="412.4060297521019" y1="183.26089535154097" y2="183.26089535154097" stroke="#DDDDDD"></line><line class="xerr" x1="518.519735206744" x2="551.0426805663192" y1="80.78695950684684" y2="80.78695950684684" stroke="#DDDDDD"></line><line class="xerr" x1="318.95437492911964" x2="356.06854951433013" y1="173.62702951167338" y2="173.62702951167338" stroke="#DDDDDD"></line><line class="xerr" x1="466.89073570825735" x2="506.81655723637215" y1="148.5547676049315" y2="148.5547676049315" stroke="#DDDDDD"></line><line class="xerr" x1="397.0961305413159" x2="439.84097901582516" y1="140.287105676028" y2="140.287105676028" stroke="#DDDDDD"></line><line class="xerr" x1="14.7351630834817" x2="58.70242114345514" y1="296.8400008978001" y2="296.8400008978001" stroke="#DDDDDD"></line><line class="xerr" x1="438.39060919305604" x2="484.1997971615868" y1="106.53344558205403" y2="106.53344558205403" stroke="#DDDDDD"></line><line class="xerr" x1="361.9100795715064" x2="408.8536271174064" y1="126.57962112867708" y2="126.57962112867708" stroke="#DDDDDD"></line><line class="xerr" x1="179.18228067445486" x2="228.91531279680166" y1="274.29194627154004" y2="274.29194627154004" stroke="#DDDDDD"></line><line class="xerr" x1="352.85041857425256" x2="404.0430213048249" y1="187.35385722569487" y2="187.35385722569487" stroke="#DDDDDD"></line><line class="xerr" x1="328.95314703748653" x2="382.28711780192106" y1="180.79529060640147" y2="180.79529060640147" stroke="#DDDDDD"></line><line class="xerr" x1="456.8563575993686" x2="512.1086595146433" y1="149.42079285415684" y2="149.42079285415684" stroke="#DDDDDD"></line><line class="xerr" x1="388.30622559350553" x2="447.2028980078583" y1="153.01118237858202" y2="153.01118237858202" stroke="#DDDDDD"></line><line class="xerr" x1="217.73194782722845" x2="283.2556276577976" y1="300.2130404931532" y2="300.2130404931532" stroke="#DDDDDD"></line><line class="xerr" x1="255.0617476206829" x2="321.82318782698917" y1="179.88402759639268" y2="179.88402759639268" stroke="#DDDDDD"></line><line class="yerr" x1="357.92828989275813" x2="357.92828989275813" y1="190.72722781013073" y2="171.64300633595414" stroke="#DDDDDD"></line><line class="yerr" x1="394.02677335028596" x2="394.02677335028596" y1="189.28908225887238" y2="163.5424133050216" stroke="#DDDDDD"></line><line class="yerr" x1="381.7869112383552" x2="381.7869112383552" y1="198.41711745108194" y2="172.210746139135" stroke="#DDDDDD"></line><line class="yerr" x1="364.4831348596724" x2="364.4831348596724" y1="188.96696155076222" y2="156.63860714861752" stroke="#DDDDDD"></line><line class="yerr" x1="412.90702964935224" x2="412.90702964935224" y1="174.5466553186485" y2="140.91249473687046" stroke="#DDDDDD"></line><line class="yerr" x1="338.50960668011453" x2="338.50960668011453" y1="212.79136898758372" y2="173.0576483708693" stroke="#DDDDDD"></line><line class="yerr" x1="437.5124200575116" x2="437.5124200575116" y1="199.46233772363033" y2="150.1522690965872" stroke="#DDDDDD"></line><line class="yerr" x1="389.9934763878837" x2="389.9934763878837" y1="210.98649627397043" y2="153.2104438083536" stroke="#DDDDDD"></line><line class="yerr" x1="397.57446816157994" x2="397.57446816157994" y1="216.38118397038335" y2="150.1406067326986" stroke="#DDDDDD"></line><line class="yerr" x1="534.7812078865315" x2="534.7812078865315" y1="116.78615046052849" y2="44.78776855316519" stroke="#DDDDDD"></line><line class="yerr" x1="337.51146222172486" x2="337.51146222172486" y1="214.238190425163" y2="133.01586859818374" stroke="#DDDDDD"></line><line class="yerr" x1="486.8536464723147" x2="486.8536464723147" y1="192.7358141269301" y2="104.37372108293286" stroke="#DDDDDD"></line><line class="yerr" x1="418.46855477857054" x2="418.46855477857054" y1="187.54454995495874" y2="93.02966139709723" stroke="#DDDDDD"></line><line class="yerr" x1="36.71879211346842" x2="36.71879211346842" y1="348.3883351230655" y2="245.2916666725347" stroke="#DDDDDD"></line><line class="yerr" x1="461.29520317732147" x2="461.29520317732147" y1="157.30375407210175" y2="55.7631370920063" stroke="#DDDDDD"></line><line class="yerr" x1="385.3818533444564" x2="385.3818533444564" y1="178.43244353124797" y2="74.72679872610624" stroke="#DDDDDD"></line><line class="yerr" x1="204.0487967356283" x2="204.0487967356283" y1="330.16991959369983" y2="218.41397294938028" stroke="#DDDDDD"></line><line class="yerr" x1="378.4467199395387" x2="378.4467199395387" y1="244.03630383200337" y2="130.67141061938642" stroke="#DDDDDD"></line><line class="yerr" x1="355.6201324197038" x2="355.6201324197038" y1="239.88747732712034" y2="121.70310388568262" stroke="#DDDDDD"></line><line class="yerr" x1="484.48250855700593" x2="484.48250855700593" y1="210.57116890112357" y2="88.27041680719017" stroke="#DDDDDD"></line><line class="yerr" x1="417.7545618006819" x2="417.7545618006819" y1="218.1592773439792" y2="87.86308741318483" stroke="#DDDDDD"></line><line class="yerr" x1="250.49378774251304" x2="250.49378774251304" y1="372.67678031856" y2="227.7493006677463" stroke="#DDDDDD"></line><line class="yerr" x1="288.4424677238361" x2="288.4424677238361" y1="253.32671805716257" y2="106.44133713562283" stroke="#DDDDDD"></line><circle id="XPC1" class="pt" fill="#FFFFFF" cx="357.92828989275813" cy="181.18511707304245" stroke="#000000" r="3"></circle><circle id="XPC2" class="pt" fill="#FFFFFF" cx="394.02677335028596" cy="176.41574778194698" stroke="#000000" r="1"></circle><circle id="XPC3" class="pt" fill="#FFFFFF" cx="381.7869112383552" cy="185.31393179510846" stroke="#000000" r="3"></circle><circle id="XPC4" class="pt" fill="#FFFFFF" cx="364.4831348596724" cy="172.80278434968983" stroke="#000000" r="3"></circle><circle id="XPC5" class="pt" fill="#FFFFFF" cx="412.90702964935224" cy="157.72957502775947" stroke="#000000" r="3"></circle><circle id="XPC6" class="pt" fill="#FFFFFF" cx="338.50960668011453" cy="192.9245086792265" stroke="#000000" r="3"></circle><circle id="XPC7" class="pt" fill="#FFFFFF" cx="437.5124200575116" cy="174.80730341010877" stroke="#000000" r="3"></circle><circle id="XPC8" class="pt" fill="#FFFFFF" cx="389.9934763878837" cy="182.09847004116205" stroke="#000000" r="1"></circle><circle id="XPC9" class="pt" fill="#FFFFFF" cx="397.57446816157994" cy="183.26089535154097" stroke="#000000" r="1"></circle><circle id="XPC10" class="pt" fill="#FFFFFF" cx="534.7812078865315" cy="80.78695950684684" stroke="#000000" r="3"></circle><circle id="XPC11" class="pt" fill="#FFFFFF" cx="337.51146222172486" cy="173.62702951167338" stroke="#000000" r="3"></circle><circle id="XPC12" class="pt" fill="#FFFFFF" cx="486.8536464723147" cy="148.5547676049315" stroke="#000000" r="3"></circle><circle id="XPC13" class="pt" fill="#FFFFFF" cx="418.46855477857054" cy="140.287105676028" stroke="#000000" r="3"></circle><circle id="XPC14" class="pt" fill="#FFFFFF" cx="36.71879211346842" cy="296.8400008978001" stroke="#000000" r="3"></circle><circle id="XPC15" class="pt" fill="#FFFFFF" cx="461.29520317732147" cy="106.53344558205403" stroke="#000000" r="3"></circle><circle id="XPC16" class="pt" fill="#FFFFFF" cx="385.3818533444564" cy="126.57962112867708" stroke="#000000" r="1"></circle><circle id="XPC17" class="pt" fill="#FFFFFF" cx="204.0487967356283" cy="274.29194627154004" stroke="#000000" r="3"></circle><circle id="XPC18" class="pt" fill="#FFFFFF" cx="378.4467199395387" cy="187.35385722569487" stroke="#000000" r="1"></circle><circle id="XPC19" class="pt" fill="#FFFFFF" cx="355.6201324197038" cy="180.79529060640147" stroke="#000000" r="3"></circle><circle id="XPC20" class="pt" fill="#FFFFFF" cx="484.48250855700593" cy="149.42079285415684" stroke="#000000" r="3"></circle><circle id="XPC21" class="pt" fill="#FFFFFF" cx="417.7545618006819" cy="153.01118237858202" stroke="#000000" r="1"></circle><circle id="XPC22" class="pt" fill="#FFFFFF" cx="250.49378774251304" cy="300.2130404931532" stroke="#000000" r="3"></circle><circle id="XPC23" class="pt" fill="#FFFFFF" cx="288.4424677238361" cy="179.88402759639268" stroke="#000000" r="3"></circle></g><line x1="0" x2="571.5" y1="331.0122531337186" y2="97.73868679432307" stroke="#FF0000"></line><line x1="0" x2="571.5" y1="170.3953823234053" y2="170.3953823234053" stroke="#888888" stroke-dasharray="4"></line><line x1="393.49739924901223" x2="393.49739924901223" y1="381" y2="0" stroke="#888888" stroke-dasharray="4"></line></g></svg>