<?xml version="1.0" encoding="UTF-8" standalone="no"?>
<!DOCTYPE svg PUBLIC "-//W3C//DTD SVG 1.1//EN" "http://www.w3.org/Graphics/SVG/1.1/DTD/svg11.dtd">
<svg width="100%" height="100%" viewBox="0 0 220 38" version="1.1" xmlns="http://www.w3.org/2000/svg" xmlns:xlink="http://www.w3.org/1999/xlink" xml:space="preserve" xmlns:serif="http://www.serif.com/" style="fill-rule:evenodd;clip-rule:evenodd;stroke-linejoin:round;stroke-miterlimit:2;">
    <g transform="matrix(1,0,0,1,-4.62597,-5.66765)">
        <g transform="matrix(0.543977,0,0,0.596531,-117.952,-118.381)">
            <rect x="225.337" y="207.95" width="257.968" height="62.498"/>
        </g>
        <g transform="matrix(0.596531,0,0,0.596531,-126.577,-117.541)">
            <g transform="matrix(50,0,0,50,229.618,254.674)">
                <path d="M0.075,-0.682L0.462,-0.682L0.462,-0.595L0.173,-0.595L0.173,-0.387L0.452,-0.387L0.452,-0.3L0.173,-0.3L0.173,-0.088L0.471,-0.088L0.471,-0.001L0.075,-0.001L0.075,-0.682Z" style="fill:rgb(248,248,249);fill-rule:nonzero;"/>
            </g>
            <g transform="matrix(50,0,0,50,254.618,254.674)">
                <path d="M0.373,-0.449L0.487,-0.449L0.302,-0.228L0.5,-0L0.386,-0L0.245,-0.161L0.112,-0L0,-0L0.189,-0.228L0,-0.449L0.112,-0.449L0.245,-0.295L0.373,-0.449Z" style="fill:rgb(248,248,249);fill-rule:nonzero;"/>
            </g>
            <g transform="matrix(50,0,0,50,279.618,254.674)">
                <path d="M0.07,-0L0.07,-0.683L0.286,-0.683C0.351,-0.683 0.403,-0.666 0.442,-0.63C0.481,-0.595 0.5,-0.548 0.5,-0.489C0.5,-0.449 0.49,-0.414 0.47,-0.383C0.45,-0.353 0.423,-0.33 0.389,-0.317C0.354,-0.303 0.305,-0.296 0.24,-0.296L0.168,-0.296L0.168,-0L0.07,-0ZM0.269,-0.596L0.168,-0.596L0.168,-0.383L0.275,-0.383C0.315,-0.383 0.345,-0.392 0.367,-0.411C0.388,-0.43 0.399,-0.456 0.399,-0.491C0.399,-0.561 0.356,-0.596 0.269,-0.596Z" style="fill:rgb(248,248,249);fill-rule:nonzero;"/>
            </g>
            <g transform="matrix(50,0,0,50,305.106,254.674)">
                <path d="M0.061,-0.682L0.15,-0.682L0.15,-0.39C0.187,-0.435 0.233,-0.458 0.288,-0.458C0.318,-0.458 0.345,-0.451 0.369,-0.436C0.392,-0.421 0.41,-0.4 0.422,-0.374C0.433,-0.347 0.439,-0.308 0.439,-0.256L0.439,-0L0.35,-0L0.35,-0.278C0.35,-0.311 0.342,-0.337 0.326,-0.357C0.31,-0.377 0.289,-0.387 0.262,-0.387C0.243,-0.387 0.224,-0.382 0.207,-0.372C0.19,-0.362 0.171,-0.345 0.15,-0.322L0.15,-0L0.061,-0L0.061,-0.682Z" style="fill:rgb(248,248,249);fill-rule:nonzero;"/>
            </g>
            <g transform="matrix(50,0,0,50,330.106,254.674)">
                <path d="M0.446,-0.217L0.13,-0.217C0.132,-0.174 0.147,-0.14 0.173,-0.114C0.2,-0.089 0.234,-0.076 0.276,-0.076C0.334,-0.076 0.389,-0.094 0.438,-0.131L0.438,-0.044C0.411,-0.026 0.384,-0.013 0.357,-0.005C0.33,0.003 0.298,0.007 0.262,0.007C0.213,0.007 0.173,-0.003 0.142,-0.024C0.111,-0.044 0.087,-0.072 0.069,-0.107C0.05,-0.141 0.041,-0.181 0.041,-0.227C0.041,-0.295 0.06,-0.351 0.099,-0.394C0.138,-0.437 0.188,-0.458 0.25,-0.458C0.31,-0.458 0.357,-0.437 0.393,-0.396C0.428,-0.354 0.446,-0.298 0.446,-0.228L0.446,-0.217ZM0.132,-0.27L0.358,-0.27C0.356,-0.306 0.345,-0.333 0.326,-0.352C0.307,-0.371 0.282,-0.381 0.25,-0.381C0.218,-0.381 0.192,-0.371 0.172,-0.352C0.151,-0.333 0.138,-0.306 0.132,-0.27Z" style="fill:rgb(248,248,249);fill-rule:nonzero;"/>
            </g>
            <g transform="matrix(50,0,0,50,354.056,254.674)">
                <path d="M0.944,-0.682L1.041,-0.682L0.765,0.003L0.744,0.003L0.521,-0.552L0.296,0.003L0.275,0.003L0,-0.682L0.098,-0.682L0.286,-0.212L0.475,-0.682L0.568,-0.682L0.758,-0.212L0.944,-0.682Z" style="fill:rgb(248,248,249);fill-rule:nonzero;"/>
            </g>
            <g transform="matrix(50,0,0,50,403.153,254.674)">
                <path d="M0.345,-0.27L0.345,-0.079C0.345,-0.064 0.35,-0.056 0.361,-0.056C0.372,-0.056 0.388,-0.064 0.411,-0.08L0.411,-0.026C0.391,-0.013 0.375,-0.004 0.363,0.001C0.35,0.005 0.338,0.008 0.324,0.008C0.286,0.008 0.264,-0.007 0.257,-0.037C0.219,-0.008 0.179,0.007 0.136,0.007C0.105,0.007 0.079,-0.003 0.058,-0.024C0.037,-0.045 0.027,-0.071 0.027,-0.102C0.027,-0.13 0.037,-0.156 0.057,-0.178C0.078,-0.2 0.107,-0.218 0.144,-0.231L0.258,-0.27L0.258,-0.294C0.258,-0.348 0.231,-0.375 0.177,-0.375C0.128,-0.375 0.081,-0.35 0.035,-0.3L0.035,-0.397C0.07,-0.438 0.119,-0.458 0.184,-0.458C0.233,-0.458 0.271,-0.445 0.301,-0.42C0.311,-0.412 0.319,-0.401 0.327,-0.387C0.335,-0.374 0.34,-0.36 0.342,-0.347C0.344,-0.333 0.345,-0.308 0.345,-0.27ZM0.258,-0.089L0.258,-0.222L0.198,-0.199C0.168,-0.187 0.147,-0.175 0.134,-0.163C0.122,-0.151 0.115,-0.135 0.115,-0.117C0.115,-0.099 0.121,-0.083 0.133,-0.072C0.145,-0.06 0.16,-0.054 0.179,-0.054C0.208,-0.054 0.234,-0.066 0.258,-0.089Z" style="fill:rgb(248,248,249);fill-rule:nonzero;"/>
            </g>
            <g transform="matrix(50,0,0,50,424.491,254.674)">
                <path d="M0.041,-0.032L0.041,-0.128C0.066,-0.11 0.092,-0.096 0.118,-0.085C0.144,-0.074 0.166,-0.069 0.184,-0.069C0.203,-0.069 0.219,-0.073 0.232,-0.083C0.245,-0.092 0.252,-0.103 0.252,-0.115C0.252,-0.128 0.248,-0.139 0.239,-0.148C0.23,-0.156 0.212,-0.169 0.183,-0.185C0.126,-0.217 0.088,-0.244 0.071,-0.267C0.053,-0.289 0.044,-0.314 0.044,-0.341C0.044,-0.375 0.057,-0.403 0.084,-0.425C0.111,-0.447 0.146,-0.458 0.188,-0.458C0.232,-0.458 0.277,-0.446 0.323,-0.421L0.323,-0.333C0.271,-0.365 0.227,-0.381 0.194,-0.381C0.177,-0.381 0.163,-0.377 0.152,-0.37C0.142,-0.363 0.136,-0.353 0.136,-0.341C0.136,-0.33 0.141,-0.32 0.151,-0.311C0.16,-0.302 0.177,-0.29 0.201,-0.277L0.233,-0.259C0.308,-0.216 0.345,-0.17 0.345,-0.118C0.345,-0.081 0.331,-0.051 0.302,-0.028C0.273,-0.004 0.236,0.008 0.191,0.008C0.164,0.008 0.14,0.005 0.12,-0.001C0.099,-0.006 0.073,-0.017 0.041,-0.032Z" style="fill:rgb(248,248,249);fill-rule:nonzero;"/>
            </g>
        </g>
    </g>
    <g transform="matrix(0.596531,0,0,0.596531,7.50561,-123.023)">
        <g transform="matrix(32.3508,0,0,32.3508,229.618,254.674)">
            <path d="M0.306,-0L0.075,-0L0.075,-0.682L0.254,-0.682C0.31,-0.682 0.354,-0.675 0.386,-0.659C0.417,-0.644 0.441,-0.623 0.458,-0.597C0.475,-0.57 0.483,-0.54 0.483,-0.505C0.483,-0.438 0.448,-0.39 0.379,-0.361C0.429,-0.351 0.468,-0.331 0.498,-0.299C0.527,-0.268 0.542,-0.23 0.542,-0.186C0.542,-0.151 0.533,-0.12 0.515,-0.093C0.497,-0.065 0.471,-0.043 0.436,-0.026C0.402,-0.009 0.358,-0 0.306,-0ZM0.257,-0.595L0.173,-0.595L0.173,-0.39L0.238,-0.39C0.29,-0.39 0.327,-0.4 0.349,-0.42C0.371,-0.44 0.382,-0.465 0.382,-0.497C0.382,-0.563 0.34,-0.595 0.257,-0.595ZM0.264,-0.303L0.173,-0.303L0.173,-0.087L0.269,-0.087C0.322,-0.087 0.359,-0.091 0.378,-0.099C0.397,-0.108 0.412,-0.121 0.424,-0.138C0.435,-0.156 0.441,-0.175 0.441,-0.195C0.441,-0.216 0.435,-0.235 0.423,-0.252C0.41,-0.269 0.393,-0.282 0.371,-0.291C0.348,-0.299 0.313,-0.303 0.264,-0.303Z" style="fill-rule:nonzero;"/>
        </g>
        <g transform="matrix(32.3508,0,0,32.3508,247.831,254.674)">
            <path d="M0.158,-0.449L0.158,-0.346L0.163,-0.354C0.206,-0.423 0.249,-0.458 0.292,-0.458C0.326,-0.458 0.361,-0.441 0.397,-0.407L0.35,-0.329C0.319,-0.358 0.291,-0.373 0.264,-0.373C0.236,-0.373 0.211,-0.359 0.19,-0.332C0.169,-0.305 0.158,-0.272 0.158,-0.235L0.158,-0L0.069,-0L0.069,-0.449L0.158,-0.449Z" style="fill-rule:nonzero;"/>
        </g>
        <g transform="matrix(32.3508,0,0,32.3508,259.836,254.674)">
            <path d="M0.278,-0.45C0.346,-0.45 0.403,-0.428 0.448,-0.384C0.493,-0.34 0.516,-0.285 0.516,-0.218C0.516,-0.153 0.493,-0.099 0.447,-0.056C0.401,-0.014 0.344,0.008 0.274,0.008C0.207,0.008 0.15,-0.014 0.105,-0.057C0.06,-0.101 0.037,-0.155 0.037,-0.22C0.037,-0.286 0.06,-0.341 0.106,-0.385C0.151,-0.428 0.209,-0.45 0.278,-0.45ZM0.273,-0.37C0.23,-0.37 0.195,-0.356 0.168,-0.328C0.141,-0.3 0.127,-0.264 0.127,-0.221C0.127,-0.178 0.141,-0.143 0.169,-0.116C0.197,-0.089 0.233,-0.075 0.277,-0.075C0.32,-0.075 0.356,-0.089 0.384,-0.116C0.412,-0.144 0.426,-0.179 0.426,-0.222C0.426,-0.265 0.411,-0.3 0.382,-0.328C0.353,-0.356 0.317,-0.37 0.273,-0.37Z" style="fill-rule:nonzero;"/>
        </g>
        <g transform="matrix(32.3508,0,0,32.3508,277.37,254.674)">
            <path d="M0.624,-0.449L0.719,-0.449L0.521,0.008L0.493,0.008L0.36,-0.305L0.229,0.008L0.2,0.008L0,-0.449L0.095,-0.449L0.213,-0.177L0.327,-0.449L0.393,-0.449L0.507,-0.177L0.624,-0.449Z" style="fill-rule:nonzero;"/>
        </g>
        <g transform="matrix(32.3508,0,0,32.3508,300.638,254.674)">
            <path d="M0.041,-0.032L0.041,-0.128C0.066,-0.11 0.092,-0.096 0.118,-0.085C0.144,-0.074 0.166,-0.069 0.184,-0.069C0.203,-0.069 0.219,-0.073 0.232,-0.083C0.245,-0.092 0.252,-0.103 0.252,-0.115C0.252,-0.128 0.248,-0.139 0.239,-0.148C0.23,-0.156 0.212,-0.169 0.183,-0.185C0.126,-0.217 0.088,-0.244 0.071,-0.267C0.053,-0.289 0.044,-0.314 0.044,-0.341C0.044,-0.375 0.057,-0.403 0.084,-0.425C0.111,-0.447 0.146,-0.458 0.188,-0.458C0.232,-0.458 0.277,-0.446 0.323,-0.421L0.323,-0.333C0.271,-0.365 0.227,-0.381 0.194,-0.381C0.177,-0.381 0.163,-0.377 0.152,-0.37C0.142,-0.363 0.136,-0.353 0.136,-0.341C0.136,-0.33 0.141,-0.32 0.151,-0.311C0.16,-0.302 0.177,-0.29 0.201,-0.277L0.233,-0.259C0.308,-0.216 0.345,-0.17 0.345,-0.118C0.345,-0.081 0.331,-0.051 0.302,-0.028C0.273,-0.004 0.236,0.008 0.191,0.008C0.164,0.008 0.14,0.005 0.12,-0.001C0.099,-0.006 0.073,-0.017 0.041,-0.032Z" style="fill-rule:nonzero;"/>
        </g>
        <g transform="matrix(32.3508,0,0,32.3508,313.085,254.674)">
            <path d="M0.446,-0.217L0.13,-0.217C0.132,-0.174 0.147,-0.14 0.173,-0.114C0.2,-0.089 0.234,-0.076 0.276,-0.076C0.334,-0.076 0.389,-0.094 0.438,-0.131L0.438,-0.044C0.411,-0.026 0.384,-0.013 0.357,-0.005C0.33,0.003 0.298,0.007 0.262,0.007C0.213,0.007 0.173,-0.003 0.142,-0.024C0.111,-0.044 0.087,-0.072 0.069,-0.107C0.05,-0.141 0.041,-0.181 0.041,-0.227C0.041,-0.295 0.06,-0.351 0.099,-0.394C0.138,-0.437 0.188,-0.458 0.25,-0.458C0.31,-0.458 0.357,-0.437 0.393,-0.396C0.428,-0.354 0.446,-0.298 0.446,-0.228L0.446,-0.217ZM0.132,-0.27L0.358,-0.27C0.356,-0.306 0.345,-0.333 0.326,-0.352C0.307,-0.371 0.282,-0.381 0.25,-0.381C0.218,-0.381 0.192,-0.371 0.172,-0.352C0.151,-0.333 0.138,-0.306 0.132,-0.27Z" style="fill-rule:nonzero;"/>
        </g>
        <g transform="matrix(32.3508,0,0,32.3508,328.582,254.674)">
            <path d="M0.158,-0.449L0.158,-0.346L0.163,-0.354C0.206,-0.423 0.249,-0.458 0.292,-0.458C0.326,-0.458 0.361,-0.441 0.397,-0.407L0.35,-0.329C0.319,-0.358 0.291,-0.373 0.264,-0.373C0.236,-0.373 0.211,-0.359 0.19,-0.332C0.169,-0.305 0.158,-0.272 0.158,-0.235L0.158,-0L0.069,-0L0.069,-0.449L0.158,-0.449Z" style="fill-rule:nonzero;"/>
        </g>
    </g>
</svg>
