<svg xmlns:xlink="http://www.w3.org/1999/xlink" xmlns="http://www.w3.org/2000/svg" width="907" height="200"><g transform="translate(60, 10)"><g class="y axis" transform="translate(-10, 0)" fill="none" font-size="10" font-family="sans-serif" text-anchor="end"><path class="domain" stroke="#212529" d="M-6,0.5H0.5V169.5H-6" fill="none"></path><g class="tick" opacity="1" transform="translate(0,1.348090645157595)" fill="none"><line stroke="#212529" x2="-6" fill="none"></line><text fill="#212529" x="-9" dy="0.32em">90</text></g><g class="tick" opacity="1" transform="translate(0,20.199446607881818)" fill="none"><line stroke="#212529" x2="-6" fill="none"></line><text fill="#212529" x="-9" dy="0.32em">80</text></g><g class="tick" opacity="1" transform="translate(0,39.05080257060604)" fill="none"><line stroke="#212529" x2="-6" fill="none"></line><text fill="#212529" x="-9" dy="0.32em">70</text></g><g class="tick" opacity="1" transform="translate(0,57.90215853333028)" fill="none"><line stroke="#212529" x2="-6" fill="none"></line><text fill="#212529" x="-9" dy="0.32em">60</text></g><g class="tick" opacity="1" transform="translate(0,76.7535144960545)" fill="none"><line stroke="#212529" x2="-6" fill="none"></line><text fill="#212529" x="-9" dy="0.32em">50</text></g><g class="tick" opacity="1" transform="translate(0,95.6048704587787)" fill="none"><line stroke="#212529" x2="-6" fill="none"></line><text fill="#212529" x="-9" dy="0.32em">40</text></g><g class="tick" opacity="1" transform="translate(0,114.45622642150295)" fill="none"><line stroke="#212529" x2="-6" fill="none"></line><text fill="#212529" x="-9" dy="0.32em">30</text></g><g class="tick" opacity="1" transform="translate(0,133.30758238422715)" fill="none"><line stroke="#212529" x2="-6" fill="none"></line><text fill="#212529" x="-9" dy="0.32em">20</text></g><g class="tick" opacity="1" transform="translate(0,152.15893834695137)" fill="none"><line stroke="#212529" x2="-6" fill="none"></line><text fill="#212529" x="-9" dy="0.32em">10</text></g></g><text transform="rotate(-90)" x="-100" y="-45" font-family="Arial" font-size="14px">-log(P)</text><circle cx="414.31204854989943" cy="0.9425677981362064" r="4" fill="#024996"></circle><circle cx="164.75324108020405" cy="18.438515659427022" r="4" fill="#025AB8"></circle><circle cx="455.70763974476984" cy="35.512752377352555" r="4" fill="#024996"></circle><circle cx="23.606062497074838" cy="51.30199653722628" r="4" fill="#012F61"></circle><circle cx="414.26168894990565" cy="53.76573963415523" r="4" fill="#024996"></circle><circle cx="325.2259161609386" cy="86.78269358326493" r="4" fill="#024996"></circle><circle cx="332.15036116008054" cy="87.9011770726657" r="4" fill="#024996"></circle><circle cx="418.277867049408" cy="93.00709133517074" r="4" fill="#024996"></circle><circle cx="408.25630665064983" cy="93.60651349194015" r="4" fill="#024996"></circle><circle cx="483.9971450412644" cy="94.47790930017086" r="4" fill="#024996"></circle><circle cx="332.1377712600821" cy="95.0446639962361" r="4" fill="#024996"></circle><circle cx="412.0458665501802" cy="98.0867727849758" r="4" fill="#024996"></circle><circle cx="267.2997862681165" cy="98.91205363405837" r="4" fill="#024996"></circle><circle cx="415.3821900497668" cy="99.66433410811962" r="4" fill="#024996"></circle><circle cx="534.2560258350366" cy="100.02381638795188" r="4" fill="#024996"></circle><circle cx="423.6159846487465" cy="100.26454706432912" r="4" fill="#024996"></circle><circle cx="408.1933571506577" cy="100.29478989232625" r="4" fill="#024996"></circle><circle cx="261.06778576888877" cy="101.04600686332404" r="4" fill="#024996"></circle><circle cx="381.12507215401183" cy="101.09210724685168" r="4" fill="#024996"></circle><circle cx="381.2132014540009" cy="101.59714418651949" r="4" fill="#024996"></circle><circle cx="163.83417838031792" cy="102.02030314556745" r="4" fill="#025AB8"></circle><circle cx="259.6577169690635" cy="105.07344903054351" r="4" fill="#024996"></circle><circle cx="381.30133075398993" cy="105.73479404663262" r="4" fill="#024996"></circle><circle cx="534.1175369350536" cy="105.98650592232674" r="4" fill="#024996"></circle><circle cx="267.31237616811495" cy="108.62900971248439" r="4" fill="#024996"></circle><circle cx="408.2437167506514" cy="108.83212641411006" r="4" fill="#024996"></circle><circle cx="531.7758155353438" cy="109.1266917730406" r="4" fill="#024996"></circle><circle cx="317.54607716189025" cy="109.84668286281781" r="4" fill="#024996"></circle><circle cx="410.59802805035963" cy="109.87205250099494" r="4" fill="#024996"></circle><circle cx="302.7277648637264" cy="110.48819567888093" r="4" fill="#024996"></circle><circle cx="347.2834209582053" cy="110.5000326423519" r="4" fill="#024996"></circle><circle cx="165.82338258007144" cy="110.77644133647598" r="4" fill="#025AB8"></circle><circle cx="305.28351456340977" cy="110.81412592911283" r="4" fill="#024996"></circle><circle cx="296.9741805644394" cy="110.90316013352877" r="4" fill="#024996"></circle><circle cx="306.4795550632615" cy="111.80567498538477" r="4" fill="#024996"></circle><circle cx="274.1990514672616" cy="112.73317528689014" r="4" fill="#024996"></circle><circle cx="325.26368586093395" cy="113.48594296003948" r="4" fill="#024996"></circle><circle cx="280.4688216664847" cy="113.82950230201418" r="4" fill="#024996"></circle><circle cx="381.26356105399464" cy="115.58119024638223" r="4" fill="#024996"></circle><circle cx="257.97067036927257" cy="116.78202557641376" r="4" fill="#024996"></circle><circle cx="259.79620586904633" cy="118.30155317998471" r="4" fill="#024996"></circle><circle cx="408.8858016505718" cy="118.7938091061381" r="4" fill="#024996"></circle><circle cx="250.78183747016334" cy="119.37833848736145" r="4" fill="#024996"></circle><circle cx="497.24171983962316" cy="119.47984806765635" r="4" fill="#024996"></circle><circle cx="317.53348726189176" cy="119.70202481769181" r="4" fill="#024996"></circle><circle cx="281.52637326635363" cy="119.87016891330673" r="4" fill="#024996"></circle><circle cx="334.83200985974827" cy="120.30114103448847" r="4" fill="#024996"></circle><circle cx="250.83219707015712" cy="120.4052961858457" r="4" fill="#024996"></circle><circle cx="419.12139034930345" cy="120.48965491562635" r="4" fill="#024996"></circle><circle cx="555.6210861323891" cy="120.50768095536655" r="4" fill="#024996"></circle><circle cx="281.0101873664176" cy="120.53179387741227" r="4" fill="#024996"></circle><circle cx="418.3030468494049" cy="120.57442668502419" r="4" fill="#024996"></circle><circle cx="602.9339303265263" cy="120.61833970968785" r="4" fill="#024996"></circle><circle cx="376.20242125462175" cy="120.64446461131266" r="4" fill="#024996"></circle><circle cx="325.25109596093546" cy="121.02801487519488" r="4" fill="#024996"></circle><circle cx="274.2494110672554" cy="121.04622592308507" r="4" fill="#024996"></circle><circle cx="412.1969453501615" cy="122.0495546576383" r="4" fill="#024996"></circle><circle cx="251.9652880700167" cy="122.54917621433465" r="4" fill="#024996"></circle><circle cx="359.0172077567513" cy="122.54917621433465" r="4" fill="#024996"></circle><circle cx="455.7202296447683" cy="122.55545484300902" r="4" fill="#024996"></circle><circle cx="274.9166757671727" cy="125.26251288420855" r="4" fill="#024996"></circle><circle cx="318.40219036178416" cy="125.51869768762865" r="4" fill="#024996"></circle><circle cx="250.85737687015398" cy="126.55099467812084" r="4" fill="#024996"></circle><circle cx="302.76553456372176" cy="126.73348553264123" r="4" fill="#024996"></circle><circle cx="408.13040765066546" cy="126.9347605708215" r="4" fill="#024996"></circle><circle cx="250.94550617014306" cy="127.9633673494839" r="4" fill="#024996"></circle><circle cx="275.4328616671087" cy="128.27823613241972" r="4" fill="#024996"></circle><circle cx="367.64128925568264" cy="128.55559264086264" r="4" fill="#024996"></circle><circle cx="455.73281954476676" cy="129.0744707761539" r="4" fill="#024996"></circle><circle cx="275.0048050671617" cy="129.211663705857" r="4" fill="#024996"></circle><circle cx="418.995491349319" cy="129.2505502443617" r="4" fill="#024996"></circle><circle cx="418.3785862493955" cy="129.80931273055785" r="4" fill="#024996"></circle><circle cx="435.80300784723636" cy="132.0568940467769" r="4" fill="#024996"></circle><circle cx="462.0529493439836" cy="132.7553734519645" r="4" fill="#024996"></circle><circle cx="271.8321502675549" cy="132.84390646472036" r="4" fill="#024996"></circle><circle cx="280.4814115664831" cy="134.23053490534662" r="4" fill="#024996"></circle><circle cx="164.28741478026177" cy="134.67028672201425" r="4" fill="#025AB8"></circle><circle cx="274.22423126725846" cy="135.1707526878623" r="4" fill="#024996"></circle><circle cx="417.7490912494735" cy="135.67672556663211" r="4" fill="#024996"></circle><circle cx="325.2888656609308" cy="135.71062480233624" r="4" fill="#024996"></circle><circle cx="408.20594705065605" cy="136.40564415055277" r="4" fill="#024996"></circle><circle cx="170.6075445794786" cy="136.44208179999316" r="4" fill="#025AB8"></circle><circle cx="393.123246852525" cy="136.59839787398292" r="4" fill="#024996"></circle><circle cx="555.6462659323859" cy="137.36763533967266" r="4" fill="#024996"></circle><circle cx="392.6196508525875" cy="137.36763533967266" r="4" fill="#024996"></circle><circle cx="546.4178692335294" cy="137.6114358498634" r="4" fill="#024996"></circle><circle cx="325.238506060937" cy="137.64372232223218" r="4" fill="#024996"></circle><circle cx="464.9108566436294" cy="137.69038140577848" r="4" fill="#024996"></circle><circle cx="414.29945864990094" cy="137.8067751985817" r="4" fill="#024996"></circle><circle cx="255.81779746953933" cy="138.44295007258165" r="4" fill="#024996"></circle><circle cx="393.2239660525126" cy="138.60019604795025" r="4" fill="#024996"></circle><circle cx="255.85556716953462" cy="138.6753671315929" r="4" fill="#024996"></circle><circle cx="170.1920778795301" cy="139.0401890720284" r="4" fill="#025AB8"></circle><circle cx="341.1395497589666" cy="139.1704369073855" r="4" fill="#024996"></circle><circle cx="419.1465701493003" cy="139.33196295531212" r="4" fill="#024996"></circle><circle cx="335.63776345964834" cy="141.35026877655721" r="4" fill="#024996"></circle><circle cx="274.21164136726003" cy="142.8796390776801" r="4" fill="#024996"></circle><circle cx="418.29045694940646" cy="143.20493723760578" r="4" fill="#024996"></circle><circle cx="281.5515530663505" cy="143.54510280578637" r="4" fill="#024996"></circle><circle cx="317.6090266618824" cy="143.90816181456444" r="4" fill="#024996"></circle><circle cx="419.0458509493128" cy="144.37284034574526" r="4" fill="#024996"></circle><circle cx="267.27460646811966" cy="144.40247984015994" r="4" fill="#024996"></circle><circle cx="85.12031388945226" cy="144.63228891284635" r="4" fill="#012F61"></circle><circle cx="325.2762757609323" cy="144.67224174321262" r="4" fill="#024996"></circle><circle cx="178.18666437853943" cy="144.8216976954283" r="4" fill="#025AB8"></circle><circle cx="293.9777843648107" cy="144.84299602014616" r="4" fill="#024996"></circle><circle cx="353.0621850574892" cy="144.85362344363134" r="4" fill="#024996"></circle><circle cx="280.49400146648156" cy="144.91995554096604" r="4" fill="#024996"></circle><circle cx="172.82336697920405" cy="145.09667469180482" r="4" fill="#025AB8"></circle><circle cx="408.91098145056867" cy="145.9301582968472" r="4" fill="#024996"></circle><circle cx="337.173731259458" cy="145.98389571175926" r="4" fill="#024996"></circle><circle cx="258.51203606920546" cy="146.19868381680033" r="4" fill="#024996"></circle><circle cx="161.25324888063778" cy="146.2520460452517" r="4" fill="#025AB8"></circle><circle cx="330.0730276603379" cy="146.58382758244613" r="4" fill="#024996"></circle><circle cx="297.71698466434736" cy="146.83773565666922" r="4" fill="#024996"></circle><circle cx="4.998190299380646" cy="146.98993473252042" r="4" fill="#012F61"></circle><circle cx="381.11248225401334" cy="147.98432426165382" r="4" fill="#024996"></circle><circle cx="235.85021607201364" cy="148.10815314773834" r="4" fill="#024996"></circle><circle cx="252.00305777001202" cy="148.3876122954436" r="4" fill="#024996"></circle><circle cx="414.27427884990414" cy="148.69310974393372" r="4" fill="#024996"></circle><circle cx="274.94185556716957" cy="149.11913363876516" r="4" fill="#024996"></circle><circle cx="316.652194262001" cy="149.16433768763085" r="4" fill="#024996"></circle><circle cx="392.607060952589" cy="149.22141226314577" r="4" fill="#024996"></circle><circle cx="546.405279333531" cy="149.2501210294822" r="4" fill="#024996"></circle><circle cx="393.1106569525266" cy="149.31306520977114" r="4" fill="#024996"></circle><circle cx="58.02684909280956" cy="149.41866490459884" r="4" fill="#012F61"></circle><circle cx="555.6336760323875" cy="149.44454769385263" r="4" fill="#024996"></circle><circle cx="272.4112856674831" cy="149.49066460641117" r="4" fill="#024996"></circle><circle cx="535.5401956348774" cy="149.8443678597353" r="4" fill="#024996"></circle><circle cx="475.9396090422628" cy="149.88602348562597" r="4" fill="#024996"></circle><circle cx="418.93254184932687" cy="149.89098106221095" r="4" fill="#024996"></circle><circle cx="257.5174339693287" cy="149.99472383816774" r="4" fill="#024996"></circle><circle cx="408.3696157506358" cy="150.03095328125573" r="4" fill="#024996"></circle><circle cx="365.53877595594315" cy="150.0536040564146" r="4" fill="#024996"></circle><circle cx="417.018877049564" cy="150.17680645366602" r="4" fill="#024996"></circle><circle cx="266.11633566826316" cy="150.1984741692159" r="4" fill="#024996"></circle><circle cx="419.05844084931124" cy="150.234054923448" r="4" fill="#024996"></circle><circle cx="335.65035335964683" cy="150.6817257748443" r="4" fill="#024996"></circle><circle cx="389.11965865302113" cy="150.7759315237325" r="4" fill="#024996"></circle><circle cx="221.98873617373127" cy="150.9353210913161" r="4" fill="#024996"></circle><circle cx="419.34800854927533" cy="151.25855997701635" r="4" fill="#024996"></circle><circle cx="166.10036038003713" cy="151.436729198249" r="4" fill="#025AB8"></circle><circle cx="380.39485795410224" cy="151.49625286957036" r="4" fill="#024996"></circle><circle cx="256.0318257695128" cy="151.50200668410804" r="4" fill="#024996"></circle><circle cx="325.75469196087306" cy="151.62191552209026" r="4" fill="#024996"></circle><circle cx="535.5527855348759" cy="151.69165020271066" r="4" fill="#024996"></circle><circle cx="259.80879576904476" cy="151.7500254470289" r="4" fill="#024996"></circle><circle cx="316.23672756205247" cy="152.06717177843342" r="4" fill="#024996"></circle><circle cx="419.1339802493019" cy="152.18553597222552" r="4" fill="#024996"></circle><circle cx="330.09820746033483" cy="152.20667376642228" r="4" fill="#024996"></circle><circle cx="337.198911059455" cy="152.22068807322648" r="4" fill="#024996"></circle><circle cx="279.7386074665752" cy="152.3846297945753" r="4" fill="#024996"></circle><circle cx="467.1140891433564" cy="152.4202291338148" r="4" fill="#024996"></circle><circle cx="274.2620009672538" cy="152.4966706428718" r="4" fill="#024996"></circle><circle cx="190.67584517699186" cy="152.5435336697635" r="4" fill="#025AB8"></circle><circle cx="175.21544797890763" cy="152.60858176241206" r="4" fill="#025AB8"></circle><circle cx="203.89524017535376" cy="152.65745824533076" r="4" fill="#025AB8"></circle><circle cx="407.7527106507123" cy="152.68922156908906" r="4" fill="#024996"></circle><circle cx="370.29775815535345" cy="152.71485688759492" r="4" fill="#024996"></circle><circle cx="589.5256868281876" cy="152.93230915568952" r="4" fill="#024996"></circle><circle cx="23.392034197101356" cy="153.07017214629715" r="4" fill="#012F61"></circle><circle cx="176.53738747874382" cy="153.08502094206477" r="4" fill="#025AB8"></circle><circle cx="262.4526747687172" cy="153.3110626469564" r="4" fill="#024996"></circle><circle cx="436.8605594471053" cy="153.7476001557404" r="4" fill="#024996"></circle><circle cx="260.96706656890126" cy="153.7548572254647" r="4" fill="#024996"></circle><circle cx="265.6379194683225" cy="153.8464495119385" r="4" fill="#024996"></circle><circle cx="417.76168114947194" cy="153.89197689447076" r="4" fill="#024996"></circle><circle cx="170.45646577949734" cy="154.08351732362863" r="4" fill="#025AB8"></circle><circle cx="318.20075196180915" cy="154.32120546402007" r="4" fill="#024996"></circle><circle cx="534.2434359350381" cy="154.41530755997792" r="4" fill="#024996"></circle><circle cx="274.18646156726317" cy="154.45906169740226" r="4" fill="#024996"></circle><circle cx="535.5150158348805" cy="154.85077278137814" r="4" fill="#024996"></circle><circle cx="409.5404764504907" cy="154.97202608931028" r="4" fill="#024996"></circle><circle cx="80.31097209004821" cy="155.12834931929942" r="4" fill="#012F61"></circle><circle cx="0.44064649994539695" cy="155.24990570088983" r="4" fill="#012F61"></circle><circle cx="150.7136928813242" cy="155.3256368482929" r="4" fill="#012F61"></circle><circle cx="368.2330145556093" cy="155.51658688514723" r="4" fill="#024996"></circle><circle cx="410.1951512504096" cy="155.54824843191471" r="4" fill="#024996"></circle><circle cx="273.22962916738174" cy="155.64743759290747" r="4" fill="#024996"></circle><circle cx="257.15232686937395" cy="155.72640789265802" r="4" fill="#024996"></circle><circle cx="365.55136585594164" cy="155.73236904398325" r="4" fill="#024996"></circle><circle cx="445.522410646032" cy="155.94497781590434" r="4" fill="#024996"></circle><circle cx="274.17387166726473" cy="156.10467349707113" r="4" fill="#024996"></circle><circle cx="419.0080812493175" cy="156.118023215561" r="4" fill="#024996"></circle><circle cx="257.29081576935675" cy="156.2925332070519" r="4" fill="#024996"></circle><circle cx="226.49592037317277" cy="156.39810048867656" r="4" fill="#024996"></circle><circle cx="325.30145556092924" cy="156.57460116032325" r="4" fill="#024996"></circle><circle cx="418.31563674940327" cy="156.64651838000103" r="4" fill="#024996"></circle><circle cx="423.64116444874344" cy="156.651267695514" r="4" fill="#024996"></circle><circle cx="302.7403547637249" cy="156.81397548052843" r="4" fill="#024996"></circle><circle cx="85.1329037894507" cy="156.90638343546206" r="4" fill="#012F61"></circle><circle cx="422.81023104884633" cy="156.92688258696052" r="4" fill="#024996"></circle><circle cx="259.8213856690432" cy="157.05317250599083" r="4" fill="#024996"></circle><circle cx="325.7798717608699" cy="157.05496025697136" r="4" fill="#024996"></circle><circle cx="266.0282063682741" cy="157.08902744783745" r="4" fill="#024996"></circle><circle cx="285.6180907658466" cy="157.22819242638255" r="4" fill="#024996"></circle><circle cx="350.84636265776385" cy="157.26026934264945" r="4" fill="#024996"></circle><circle cx="544.9196711337152" cy="157.29426178560303" r="4" fill="#024996"></circle><circle cx="194.11288787656594" cy="157.64640838053788" r="4" fill="#025AB8"></circle><circle cx="258.1343390692523" cy="157.68744780237373" r="4" fill="#024996"></circle><circle cx="178.09853507855036" cy="157.68852204350407" r="4" fill="#025AB8"></circle><circle cx="186.73520647748018" cy="157.68852204350407" r="4" fill="#025AB8"></circle><circle cx="5.149269099361924" cy="157.73405629609513" r="4" fill="#012F61"></circle><circle cx="453.52958704503976" cy="157.81393244312628" r="4" fill="#024996"></circle><circle cx="257.1397369693755" cy="157.81393244312628" r="4" fill="#024996"></circle><circle cx="417.4091639495156" cy="157.88748141611478" r="4" fill="#024996"></circle><circle cx="229.51749637279835" cy="157.89032942278396" r="4" fill="#024996"></circle><circle cx="408.9613410505625" cy="157.9887351004578" r="4" fill="#024996"></circle><circle cx="417.7742710494704" cy="158.07540956724796" r="4" fill="#024996"></circle><circle cx="85.14549368944913" cy="158.1785356231337" r="4" fill="#012F61"></circle><circle cx="25.028721196898548" cy="158.2098237213299" r="4" fill="#012F61"></circle><circle cx="148.0949936816487" cy="158.2662164394277" r="4" fill="#012F61"></circle><circle cx="379.96680135415534" cy="158.26915333281255" r="4" fill="#024996"></circle><circle cx="85.97642708934616" cy="158.3728409928969" r="4" fill="#012F61"></circle><circle cx="550.5725362330147" cy="158.42424625425076" r="4" fill="#024996"></circle><circle cx="225.03549197335371" cy="158.49182503100724" r="4" fill="#024996"></circle><circle cx="381.3768701539806" cy="158.5397792332896" r="4" fill="#024996"></circle><circle cx="263.6864849685643" cy="158.63735018869366" r="4" fill="#024996"></circle><circle cx="165.65971388009174" cy="158.8316829721869" r="4" fill="#025AB8"></circle><circle cx="393.00993775253903" cy="158.84727228989195" r="4" fill="#024996"></circle><circle cx="408.89839155057024" cy="158.92289482594023" r="4" fill="#024996"></circle><circle cx="49.75528479383454" cy="158.9405769427401" r="4" fill="#012F61"></circle><circle cx="199.2999266759232" cy="158.9625643559776" r="4" fill="#025AB8"></circle><circle cx="92.1077083885864" cy="159.00603679467213" r="4" fill="#012F61"></circle><circle cx="249.8501848702788" cy="159.1816378873501" r="4" fill="#024996"></circle><circle cx="165.42050578012137" cy="159.24095655292123" r="4" fill="#025AB8"></circle><circle cx="318.5784489617623" cy="159.24551592620892" r="4" fill="#024996"></circle><circle cx="129.82704878391237" cy="159.32562119667475" r="4" fill="#012F61"></circle><circle cx="67.96028019157866" cy="159.34301929215897" r="4" fill="#012F61"></circle><circle cx="280.56954086647215" cy="159.40151378000846" r="4" fill="#024996"></circle><circle cx="484.23635314123476" cy="159.4294405016744" r="4" fill="#024996"></circle><circle cx="222.66859077364703" cy="159.46878021205384" r="4" fill="#024996"></circle><circle cx="277.81235276681383" cy="159.47734232639186" r="4" fill="#024996"></circle><circle cx="186.21902057754411" cy="159.481675256826" r="4" fill="#025AB8"></circle><circle cx="316.8788124619729" cy="159.55433160517822" r="4" fill="#024996"></circle><circle cx="368.2581943556062" cy="159.6210189943125" r="4" fill="#024996"></circle><circle cx="366.73481645579494" cy="159.6855027887493" r="4" fill="#024996"></circle><circle cx="79.71924679012153" cy="159.73753443123314" r="4" fill="#012F61"></circle><circle cx="154.32699418087645" cy="159.7461098202358" r="4" fill="#012F61"></circle><circle cx="6.408259099205916" cy="159.851359033527" r="4" fill="#012F61"></circle><circle cx="419.58721664924576" cy="159.88127629107586" r="4" fill="#024996"></circle><circle cx="229.6308054727843" cy="159.96144270092944" r="4" fill="#024996"></circle><circle cx="511.8837735378088" cy="160.005171599259" r="4" fill="#024996"></circle><circle cx="67.93510039158177" cy="160.0103683287853" r="4" fill="#012F61"></circle><circle cx="508.1823429382674" cy="160.03712792372326" r="4" fill="#024996"></circle><circle cx="241.0498447713693" cy="160.1179874530647" r="4" fill="#024996"></circle><circle cx="89.58972838889842" cy="160.1841368364737" r="4" fill="#012F61"></circle><circle cx="325.47771416090734" cy="160.20597806634564" r="4" fill="#024996"></circle><circle cx="163.97266728030078" cy="160.2989484559555" r="4" fill="#025AB8"></circle><circle cx="345.2564470584565" cy="160.38414847087662" r="4" fill="#024996"></circle><circle cx="535.5276057348789" cy="160.50889402421848" r="4" fill="#024996"></circle><circle cx="484.2489430412332" cy="160.56470365208938" r="4" fill="#024996"></circle><circle cx="1.6115071998003088" cy="160.62088805168756" r="4" fill="#012F61"></circle><circle cx="165.15611788015414" cy="160.6862369194292" r="4" fill="#025AB8"></circle><circle cx="164.7658309802025" cy="160.71436778604297" r="4" fill="#025AB8"></circle><circle cx="319.3842025616625" cy="160.72670265440757" r="4" fill="#024996"></circle><circle cx="380.38226805410386" cy="160.73165985612496" r="4" fill="#024996"></circle><circle cx="262.3267757687328" cy="160.73677857567347" r="4" fill="#024996"></circle><circle cx="456.9792196446123" cy="160.75145033798944" r="4" fill="#024996"></circle><circle cx="2.2535920997207444" cy="160.773685051796" r="4" fill="#012F61"></circle><circle cx="208.4905536747843" cy="160.77603339543094" r="4" fill="#025AB8"></circle><circle cx="205.34307867517435" cy="160.82402575693615" r="4" fill="#025AB8"></circle><circle cx="257.7692319692975" cy="160.87439460030131" r="4" fill="#024996"></circle><circle cx="294.8590773647015" cy="160.92007752986692" r="4" fill="#024996"></circle><circle cx="274.9292656671711" cy="160.94066283118002" r="4" fill="#024996"></circle><circle cx="317.596436761884" cy="160.94405523929345" r="4" fill="#024996"></circle><circle cx="204.96538167522115" cy="160.97304219832347" r="4" fill="#025AB8"></circle><circle cx="365.58913555593693" cy="160.97662638174592" r="4" fill="#024996"></circle><circle cx="271.5174027675939" cy="161.003045219751" r="4" fill="#024996"></circle><circle cx="1.624097099798749" cy="161.0391399459119" r="4" fill="#012F61"></circle><circle cx="227.01210627310877" cy="161.06715538958335" r="4" fill="#024996"></circle><circle cx="171.22444967940217" cy="161.10208683063374" r="4" fill="#025AB8"></circle><circle cx="614.6569369256931" cy="161.16267088952867" r="4" fill="black"></circle><circle cx="281.53896316635206" cy="161.2230718776305" r="4" fill="#024996"></circle><circle cx="229.5426761727952" cy="161.2538760839548" r="4" fill="#024996"></circle><circle cx="469.19142264309903" cy="161.31451865256716" r="4" fill="#024996"></circle><circle cx="207.08048487495907" cy="161.38420655659996" r="4" fill="#025AB8"></circle><circle cx="432.75625204761394" cy="161.39840590662251" r="4" fill="#024996"></circle><circle cx="615.3619713256057" cy="161.41070080875295" r="4" fill="black"></circle><circle cx="294.4813803647483" cy="161.4151239228609" r="4" fill="#024996"></circle><circle cx="494.5600711399554" cy="161.45100771045261" r="4" fill="#024996"></circle><circle cx="280.54436106647535" cy="161.45794124015873" r="4" fill="#024996"></circle><circle cx="393.14842665252195" cy="161.45794124015873" r="4" fill="#024996"></circle><circle cx="61.36317259239614" cy="161.56399352228124" r="4" fill="#012F61"></circle><circle cx="403.1699870512801" cy="161.58658008999575" r="4" fill="#024996"></circle><circle cx="286.58751306572645" cy="161.59201430020377" r="4" fill="#024996"></circle><circle cx="336.27984835956886" cy="161.6071067683777" r="4" fill="#024996"></circle><circle cx="534.1301268350521" cy="161.6360156290913" r="4" fill="#024996"></circle><circle cx="166.38992808000125" cy="161.64305686909816" r="4" fill="#025AB8"></circle><circle cx="272.4868250674738" cy="161.6452673239037" r="4" fill="#024996"></circle><circle cx="24.613254496950027" cy="161.67500317165067" r="4" fill="#012F61"></circle><circle cx="147.98168458166273" cy="161.6796216383969" r="4" fill="#012F61"></circle><circle cx="350.4057161578184" cy="161.68706570995525" r="4" fill="#024996"></circle><circle cx="178.21184417853632" cy="161.73959510637926" r="4" fill="#025AB8"></circle><circle cx="194.1002979765675" cy="161.7428054037261" r="4" fill="#025AB8"></circle><circle cx="186.69743677748482" cy="161.7428054037261" r="4" fill="#025AB8"></circle><circle cx="297.86806346432866" cy="161.8167785583416" r="4" fill="#024996"></circle><circle cx="68.01063979157242" cy="161.84005436561242" r="4" fill="#012F61"></circle><circle cx="23.719371597060796" cy="161.84552205406314" r="4" fill="#012F61"></circle><circle cx="419.02067114931594" cy="161.87080962113905" r="4" fill="#024996"></circle><circle cx="417.0566467495593" cy="161.89911818778728" r="4" fill="#024996"></circle><circle cx="417.3965740495172" cy="161.89951450348818" r="4" fill="#024996"></circle><circle cx="211.12184277445826" cy="161.9180066853677" r="4" fill="#025AB8"></circle><circle cx="274.7404171671945" cy="161.92831348231073" r="4" fill="#024996"></circle><circle cx="165.63453408009485" cy="161.93535504954252" r="4" fill="#025AB8"></circle><circle cx="1.6366869997971887" cy="161.9600710111113" r="4" fill="#012F61"></circle><circle cx="417.4595235495094" cy="161.97873432949635" r="4" fill="#024996"></circle><circle cx="1.6744566997925086" cy="162.0191020871246" r="4" fill="#012F61"></circle><circle cx="466.23279614346563" cy="162.02824060258726" r="4" fill="#024996"></circle><circle cx="194.40245557653006" cy="162.04184964022826" r="4" fill="#025AB8"></circle><circle cx="241.18833367135213" cy="162.1287482531107" r="4" fill="#024996"></circle><circle cx="284.93823616593085" cy="162.15380027873786" r="4" fill="#024996"></circle><circle cx="260.9292968689059" cy="162.26677348470338" r="4" fill="#024996"></circle><circle cx="165.52122498010888" cy="162.26757878786884" r="4" fill="#025AB8"></circle><circle cx="412.31025445014745" cy="162.442660329894" r="4" fill="#024996"></circle><circle cx="551.529368632896" cy="162.6408315409234" r="4" fill="#024996"></circle><circle cx="285.3159331658841" cy="162.66433235178974" r="4" fill="#024996"></circle><circle cx="417.3588043495219" cy="162.66433235178974" r="4" fill="#024996"></circle><circle cx="5.249988299349444" cy="162.66816063602087" r="4" fill="#012F61"></circle><circle cx="253.9544922697702" cy="162.6964607824462" r="4" fill="#024996"></circle><circle cx="273.2548089673786" cy="162.71267860163775" r="4" fill="#024996"></circle><circle cx="347.2204714582131" cy="162.77178492502384" r="4" fill="#024996"></circle><circle cx="409.7922744504595" cy="162.84125489854046" r="4" fill="#024996"></circle><circle cx="250.5678091701899" cy="162.89290474022988" r="4" fill="#024996"></circle><circle cx="376.35350005460305" cy="162.90323232829303" r="4" fill="#024996"></circle><circle cx="148.37197148161437" cy="162.92092686570422" r="4" fill="#012F61"></circle><circle cx="235.86280597201207" cy="162.96489527885808" r="4" fill="#024996"></circle><circle cx="529.1319365356715" cy="162.97712970584703" r="4" fill="#024996"></circle><circle cx="205.50674737515408" cy="163.00986689800314" r="4" fill="#025AB8"></circle><circle cx="389.14483845301805" cy="163.08886384382853" r="4" fill="#024996"></circle><circle cx="1.6618667997940686" cy="163.09986273538556" r="4" fill="#012F61"></circle><circle cx="412.20953525016" cy="163.11966994356" r="4" fill="#024996"></circle><circle cx="423.18792804879956" cy="163.11966994356" r="4" fill="#024996"></circle><circle cx="418.8318226493393" cy="163.12165957011368" r="4" fill="#024996"></circle><circle cx="460.9450381441209" cy="163.13092116651433" r="4" fill="#024996"></circle><circle cx="178.174074478541" cy="163.13772124310475" r="4" fill="#025AB8"></circle><circle cx="5.048549899374406" cy="163.14208914767005" r="4" fill="#012F61"></circle><circle cx="186.23161047754257" cy="163.1592077350207" r="4" fill="#025AB8"></circle><circle cx="373.21861495499155" cy="163.18509198928805" r="4" fill="#024996"></circle><circle cx="226.9239769731197" cy="163.19816370298614" r="4" fill="#024996"></circle><circle cx="373.97400895489795" cy="163.20222015358587" r="4" fill="#024996"></circle><circle cx="508.19493283826586" cy="163.22192399783228" r="4" fill="#024996"></circle><circle cx="373.5207725549541" cy="163.26293039121646" r="4" fill="#024996"></circle><circle cx="267.2871963681181" cy="163.27324276292302" r="4" fill="#024996"></circle><circle cx="292.3662771650104" cy="163.317456955079" r="4" fill="#024996"></circle><circle cx="346.9686734582443" cy="163.32040287244223" r="4" fill="#024996"></circle><circle cx="342.56220845879034" cy="163.46034684739425" r="4" fill="#024996"></circle><circle cx="432.8066116476076" cy="163.51322352126198" r="4" fill="#024996"></circle><circle cx="226.67217897315092" cy="163.53012577863035" r="4" fill="#024996"></circle><circle cx="165.1057582801604" cy="163.54140509117727" r="4" fill="#025AB8"></circle><circle cx="410.6861573503487" cy="163.59147695138645" r="4" fill="#024996"></circle><circle cx="317.89859436184656" cy="163.64248667187329" r="4" fill="#024996"></circle><circle cx="58.039438992808" cy="163.6528733358753" r="4" fill="#012F61"></circle><circle cx="544.9322610337135" cy="163.68966713937417" r="4" fill="#024996"></circle><circle cx="335.5244543596624" cy="163.70366392283853" r="4" fill="#024996"></circle><circle cx="275.0551646671555" cy="163.72432438297602" r="4" fill="#024996"></circle><circle cx="265.2728123683677" cy="163.80966712352944" r="4" fill="#024996"></circle><circle cx="210.42939827454404" cy="163.81346598269712" r="4" fill="#025AB8"></circle><circle cx="318.4525499617779" cy="163.9196472548514" r="4" fill="#024996"></circle><circle cx="259.8465654690401" cy="163.93922834074928" r="4" fill="#024996"></circle><circle cx="316.76550336198693" cy="163.94615839122184" r="4" fill="#024996"></circle><circle cx="280.02817516653926" cy="163.9743191995866" r="4" fill="#024996"></circle><circle cx="178.02299567855974" cy="163.98935890004267" r="4" fill="#025AB8"></circle><circle cx="178.1111249785488" cy="163.98935890004267" r="4" fill="#025AB8"></circle><circle cx="252.4688840699543" cy="163.9898625894043" r="4" fill="#024996"></circle><circle cx="409.02429055055467" cy="163.98995072588406" r="4" fill="#024996"></circle><circle cx="439.2148707468136" cy="163.99337073907674" r="4" fill="#024996"></circle><circle cx="326.8877829607327" cy="164.00875645448633" r="4" fill="#024996"></circle><circle cx="380.31931855411165" cy="164.0450924810512" r="4" fill="#024996"></circle><circle cx="225.06067177335058" cy="164.0720471942062" r="4" fill="#024996"></circle><circle cx="440.25983244668413" cy="164.07207506786682" r="4" fill="#024996"></circle><circle cx="370.4740167553316" cy="164.155638398072" r="4" fill="#024996"></circle><circle cx="324.69714036100413" cy="164.16091386068746" r="4" fill="#024996"></circle><circle cx="414.46312734988066" cy="164.20299287820046" r="4" fill="#024996"></circle><circle cx="455.34253264481515" cy="164.20813326656872" r="4" fill="#024996"></circle><circle cx="574.0526997301051" cy="164.2085140582486" r="4" fill="#024996"></circle><circle cx="173.4150922791307" cy="164.26687581431784" r="4" fill="#025AB8"></circle><circle cx="237.83942027176712" cy="164.29273209704436" r="4" fill="#024996"></circle><circle cx="432.731072247617" cy="164.30397310983554" r="4" fill="#024996"></circle><circle cx="612.9195307259085" cy="164.31056104580594" r="4" fill="black"></circle><circle cx="58.089798592801756" cy="164.31705791242058" r="4" fill="#012F61"></circle><circle cx="405.95235495093533" cy="164.32415039207316" r="4" fill="#024996"></circle><circle cx="205.49415747515565" cy="164.35374686344198" r="4" fill="#025AB8"></circle><circle cx="535.0617794349366" cy="164.36778046722137" r="4" fill="#024996"></circle><circle cx="417.1070063495531" cy="164.3680897826618" r="4" fill="#024996"></circle><circle cx="408.14299755066384" cy="164.3850686865617" r="4" fill="#024996"></circle><circle cx="58.05202889280644" cy="164.4380350709252" r="4" fill="#012F61"></circle><circle cx="465.5529415435499" cy="164.4745159914712" r="4" fill="#024996"></circle><circle cx="420.01527324919266" cy="164.4946314462124" r="4" fill="#024996"></circle><circle cx="186.6596670774895" cy="164.5212465635349" r="4" fill="#025AB8"></circle><circle cx="465.70402034353117" cy="164.52204262817858" r="4" fill="#024996"></circle><circle cx="222.69377057364392" cy="164.52259128479423" r="4" fill="#024996"></circle><circle cx="461.8137412440133" cy="164.52803855483677" r="4" fill="#024996"></circle><circle cx="170.20466777952856" cy="164.5316784442288" r="4" fill="#025AB8"></circle><circle cx="559.2973369319334" cy="164.56475280359797" r="4" fill="#024996"></circle><circle cx="173.98163777906052" cy="164.5772202692946" r="4" fill="#025AB8"></circle><circle cx="391.461380052731" cy="164.59130106066306" r="4" fill="#024996"></circle><circle cx="535.0743693349351" cy="164.669485788669" r="4" fill="#024996"></circle><circle cx="510.34780573799907" cy="164.67775347168475" r="4" fill="#024996"></circle><circle cx="539.0527777344421" cy="164.6817758100748" r="4" fill="#024996"></circle><circle cx="374.03695845489017" cy="164.68431184080384" r="4" fill="#024996"></circle><circle cx="191.87188567684365" cy="164.70288934400912" r="4" fill="#025AB8"></circle><circle cx="327.42914866066553" cy="164.7242524575325" r="4" fill="#024996"></circle><circle cx="392.24195385263425" cy="164.73838163482458" r="4" fill="#024996"></circle><circle cx="343.0280347587326" cy="164.80572891041447" r="4" fill="#024996"></circle><circle cx="271.27819466762355" cy="164.80658160467314" r="4" fill="#024996"></circle><circle cx="330.0856175603364" cy="164.80741635950994" r="4" fill="#024996"></circle><circle cx="171.2622193793975" cy="164.86112077015295" r="4" fill="#025AB8"></circle><circle cx="337.21150095945336" cy="164.8905615164253" r="4" fill="#024996"></circle><circle cx="165.0553986801666" cy="164.9080754046247" r="4" fill="#025AB8"></circle><circle cx="160.74965288070015" cy="164.9080754046247" r="4" fill="#025AB8"></circle><circle cx="175.4672459788764" cy="164.93162215999376" r="4" fill="#025AB8"></circle><circle cx="179.3701149783928" cy="164.93603569103624" r="4" fill="#025AB8"></circle><circle cx="555.822524532364" cy="164.94561144675097" r="4" fill="#024996"></circle><circle cx="165.28201688013854" cy="165.01577363203435" r="4" fill="#025AB8"></circle><circle cx="377.3984617544736" cy="165.1136203939685" r="4" fill="#024996"></circle><circle cx="121.1274278849904" cy="165.11632987433694" r="4" fill="#012F61"></circle><circle cx="264.40410926847534" cy="165.12157765707323" r="4" fill="#024996"></circle><circle cx="384.72578355356563" cy="165.12377824176886" r="4" fill="#024996"></circle><circle cx="259.67030686906196" cy="165.14667483917495" r="4" fill="#024996"></circle><circle cx="529.1571163356683" cy="165.17963797928317" r="4" fill="#024996"></circle><circle cx="410.2706906504002" cy="165.21925817746398" r="4" fill="#024996"></circle><circle cx="613.4860762258382" cy="165.21962993071733" r="4" fill="black"></circle><circle cx="166.26402908001685" cy="165.24216470847205" r="4" fill="#025AB8"></circle><circle cx="162.94029548042872" cy="165.2582533407501" r="4" fill="#025AB8"></circle><circle cx="227.3268537730698" cy="165.27733683199796" r="4" fill="#024996"></circle><circle cx="419.0710307493097" cy="165.3090942274875" r="4" fill="#024996"></circle><circle cx="286.48679386573895" cy="165.3114666962065" r="4" fill="#024996"></circle><circle cx="284.0695330660385" cy="165.32061883250276" r="4" fill="#024996"></circle><circle cx="437.8677514469805" cy="165.32292150170468" r="4" fill="#024996"></circle><circle cx="316.966941761962" cy="165.33557219559776" r="4" fill="#024996"></circle><circle cx="64.05741119206228" cy="165.3406793277903" r="4" fill="#012F61"></circle><circle cx="194.67943337649575" cy="165.41013070521515" r="4" fill="#025AB8"></circle><circle cx="318.41478026178254" cy="165.47264310835067" r="4" fill="#024996"></circle><circle cx="20.16901979750074" cy="165.508421664387" r="4" fill="#012F61"></circle><circle cx="170.62013447947706" cy="165.52764762782766" r="4" fill="#025AB8"></circle><circle cx="222.47974227367044" cy="165.54061479506663" r="4" fill="#024996"></circle><circle cx="494.5978408399508" cy="165.58158943616326" r="4" fill="#024996"></circle><circle cx="317.8860044618481" cy="165.61153033008102" r="4" fill="#024996"></circle><circle cx="359.7600118566593" cy="165.61857639151125" r="4" fill="#024996"></circle><circle cx="165.16870778015257" cy="165.6266389048204" r="4" fill="#025AB8"></circle><circle cx="614.5436278257072" cy="165.6297862504395" r="4" fill="black"></circle><circle cx="336.75826455950954" cy="165.6327100164817" r="4" fill="#024996"></circle><circle cx="130.9349599837751" cy="165.63695425373112" r="4" fill="#012F61"></circle><circle cx="78.66169519025259" cy="165.63764401249566" r="4" fill="#012F61"></circle><circle cx="346.1377400583473" cy="165.64218012559158" r="4" fill="#024996"></circle><circle cx="346.16291985834414" cy="165.64218012559158" r="4" fill="#024996"></circle><circle cx="346.15032995834576" cy="165.64218012559158" r="4" fill="#024996"></circle><circle cx="347.0064431582396" cy="165.68550334147565" r="4" fill="#024996"></circle><circle cx="263.77461426855336" cy="165.69539567099156" r="4" fill="#024996"></circle><circle cx="325.50289396090426" cy="165.69539567099156" r="4" fill="#024996"></circle><circle cx="335.511864459664" cy="165.7610300328299" r="4" fill="#024996"></circle><circle cx="292.44181656500103" cy="165.77049928516158" r="4" fill="#024996"></circle><circle cx="227.31426387307133" cy="165.79219631611593" r="4" fill="#024996"></circle><circle cx="165.7100734800855" cy="165.84698111636973" r="4" fill="#025AB8"></circle><circle cx="170.44387587949888" cy="165.86210192358658" r="4" fill="#025AB8"></circle><circle cx="410.57284825036277" cy="165.86709951758579" r="4" fill="#024996"></circle><circle cx="410.2832805503986" cy="165.8877221628698" r="4" fill="#024996"></circle><circle cx="293.5371378648653" cy="165.90141044672612" r="4" fill="#024996"></circle><circle cx="436.1681149471911" cy="165.90960193743922" r="4" fill="#024996"></circle><circle cx="284.08212296603693" cy="165.91347720967698" r="4" fill="#024996"></circle><circle cx="261.81058986879674" cy="165.96131029901753" r="4" fill="#024996"></circle><circle cx="88.88469398898579" cy="165.97316263035478" r="4" fill="#012F61"></circle><circle cx="515.2075071373969" cy="165.9934177284342" r="4" fill="#024996"></circle><circle cx="224.99772227335842" cy="166.01181464149818" r="4" fill="#024996"></circle><circle cx="161.1777094806471" cy="166.05083632550634" r="4" fill="#025AB8"></circle><circle cx="381.2509711539962" cy="166.0699685339014" r="4" fill="#024996"></circle><circle cx="347.6862977581554" cy="166.1149417351659" r="4" fill="#024996"></circle><circle cx="318.2133418618075" cy="166.1170773255569" r="4" fill="#024996"></circle><circle cx="241.21351347134902" cy="166.1424817585076" r="4" fill="#024996"></circle><circle cx="335.49927455966554" cy="166.14406673253072" r="4" fill="#024996"></circle><circle cx="345.53342485842217" cy="166.145589764006" r="4" fill="#024996"></circle><circle cx="345.5460147584206" cy="166.145589764006" r="4" fill="#024996"></circle><circle cx="26.13663239676126" cy="166.15327429291702" r="4" fill="#012F61"></circle><circle cx="227.21354467308385" cy="166.16617855651555" r="4" fill="#024996"></circle><circle cx="241.12538417135994" cy="166.169573574223" r="4" fill="#024996"></circle><circle cx="420.5818187491225" cy="166.21352467645394" r="4" fill="#024996"></circle><circle cx="433.6879046474985" cy="166.21352467645394" r="4" fill="#024996"></circle><circle cx="258.6253451691914" cy="166.2267869494891" r="4" fill="#024996"></circle><circle cx="266.1415154682601" cy="166.23081905363992" r="4" fill="#024996"></circle><circle cx="185.79096397759716" cy="166.26262302888722" r="4" fill="#025AB8"></circle><circle cx="615.2990218256136" cy="166.2674261935049" r="4" fill="black"></circle><circle cx="408.6969531505953" cy="166.27693126218665" r="4" fill="#024996"></circle><circle cx="411.0260846503066" cy="166.32190036200703" r="4" fill="#024996"></circle><circle cx="266.15410536825846" cy="166.3438350382331" r="4" fill="#024996"></circle><circle cx="615.3493814256074" cy="166.3866181628252" r="4" fill="black"></circle><circle cx="226.52110017316963" cy="166.39523745531466" r="4" fill="#024996"></circle><circle cx="414.57643644986666" cy="166.4039961039582" r="4" fill="#024996"></circle><circle cx="283.54075726610404" cy="166.41202427833485" r="4" fill="#024996"></circle><circle cx="317.6593862618762" cy="166.41851375463023" r="4" fill="#024996"></circle><circle cx="274.23682116725695" cy="166.4209348339208" r="4" fill="#024996"></circle><circle cx="459.15727234434235" cy="166.43637152689377" r="4" fill="#024996"></circle><circle cx="489.20936364061845" cy="166.44158880564714" r="4" fill="#024996"></circle><circle cx="43.86321159456466" cy="166.47410355135435" r="4" fill="#012F61"></circle><circle cx="173.74242967909018" cy="166.49556207964142" r="4" fill="#025AB8"></circle><circle cx="338.1431535593379" cy="166.5254412097636" r="4" fill="#024996"></circle><circle cx="357.10354295698846" cy="166.5404980922242" r="4" fill="#024996"></circle><circle cx="389.1322485530196" cy="166.5614724999832" r="4" fill="#024996"></circle><circle cx="181.39708887814163" cy="166.56278929306458" r="4" fill="#025AB8"></circle><circle cx="181.32154947815098" cy="166.56278929306458" r="4" fill="#025AB8"></circle><circle cx="46.69593909421364" cy="166.56743112204884" r="4" fill="#012F61"></circle><circle cx="165.06798858016506" cy="166.57748545665152" r="4" fill="#025AB8"></circle><circle cx="205.87185447510882" cy="166.57748545665152" r="4" fill="#025AB8"></circle><circle cx="173.4402720791276" cy="166.5816209534336" r="4" fill="#025AB8"></circle><circle cx="539.1912666344249" cy="166.58654591333772" r="4" fill="#024996"></circle><circle cx="269.7548167678123" cy="166.59717891067936" r="4" fill="#024996"></circle><circle cx="347.9884553581179" cy="166.59932576033984" r="4" fill="#024996"></circle><circle cx="280.04076506653774" cy="166.61652589709004" r="4" fill="#024996"></circle><circle cx="250.10198287024758" cy="166.6398475106921" r="4" fill="#024996"></circle><circle cx="463.00978174386506" cy="166.65921755891762" r="4" fill="#024996"></circle><circle cx="410.61061795035806" cy="166.67110430190812" r="4" fill="#024996"></circle><circle cx="257.8825410692835" cy="166.67519278165884" r="4" fill="#024996"></circle><circle cx="539.0905474344374" cy="166.68025147917785" r="4" fill="#024996"></circle><circle cx="419.27246914928475" cy="166.6864808868226" r="4" fill="#024996"></circle><circle cx="470.68962074291335" cy="166.7123142442329" r="4" fill="#024996"></circle><circle cx="234.13798967222579" cy="166.71894829780516" r="4" fill="#024996"></circle><circle cx="614.6191672256979" cy="166.72948858569893" r="4" fill="black"></circle><circle cx="387.02973525328014" cy="166.73713607887814" r="4" fill="#024996"></circle></g><g transform="translate(60, 179)"><rect x="0" y="20" width="154.91871948080313" height="15" fill="#012F61" transform="translate(0, -15)"></rect><text x="2" y="20" font-size="10px" font-family="Arial, sans-serif" fill="#FFFFFF" dy="-3" text-length="154.91871948080313">GO:MF</text><rect x="159.91871948080313" y="20" width="56.26426309302797" height="15" fill="#025AB8" transform="translate(0, -15)"></rect><text x="161.91871948080313" y="20" font-size="10px" font-family="Arial, sans-serif" fill="#FFFFFF" dy="-3" text-length="56.26426309302797">GO:CC</text><rect x="221.1829825738311" y="20" width="383.8156913524392" height="15" fill="#024996" transform="translate(0, -15)"></rect><text x="223.1829825738311" y="20" font-size="10px" font-family="Arial, sans-serif" fill="#FFFFFF" dy="-3" text-length="383.8156913524392">GO:BP</text><rect x="609.9986739262704" y="20" width="6.911855099143512" height="15" fill="black" transform="translate(0, -15)"></rect><text x="611.9986739262704" y="20" font-size="10px" font-family="Arial, sans-serif" fill="#FFFFFF" dy="-3" text-length="6.911855099143512">KEGG</text><rect x="621.9105290254139" y="20" width="205.0894709745862" height="15" fill="#E03227" transform="translate(0, -15)"></rect><text x="623.9105290254139" y="20" font-size="10px" font-family="Arial, sans-serif" fill="#FFFFFF" dy="-3" text-length="205.0894709745862">HP</text></g></svg>