<?xml version="1.0" encoding="UTF-8" standalone="no"?>
<!DOCTYPE svg PUBLIC "-//W3C//DTD SVG 1.1//EN" "http://www.w3.org/Graphics/SVG/1.1/DTD/svg11.dtd">
<svg width="100%" height="100%" viewBox="0 0 1110 400" version="1.1" xmlns="http://www.w3.org/2000/svg" xmlns:xlink="http://www.w3.org/1999/xlink" xml:space="preserve" xmlns:serif="http://www.serif.com/" style="fill-rule:evenodd;clip-rule:evenodd;stroke-miterlimit:800;">
    <g transform="matrix(1.08824,0,0,1.08824,0,0)">
        <g transform="matrix(0.0019685,-3.15867e-20,3.15867e-20,-0.00222643,-5.18618e-15,368.352)">
            <path d="M171810,3050.59C171810,2223.36 171050,1551.76 170115,1551.76L3983.3,1551.76C3047.68,1551.76 2288.08,2223.36 2288.08,3050.59L2288.08,162559C2288.08,163386 3047.68,164058 3983.3,164058L170115,164058C171050,164058 171810,163386 171810,162559L171810,3050.59Z" style="fill:rgb(244,244,244);stroke:rgb(35,31,32);stroke-width:356.9px;"/>
        </g>
        <g transform="matrix(0.0019685,-3.15867e-20,3.15867e-20,-0.00222643,338.644,368.352)">
            <path d="M171810,3050.59C171810,2223.36 171050,1551.76 170115,1551.76L3983.3,1551.76C3047.68,1551.76 2288.08,2223.36 2288.08,3050.59L2288.08,162559C2288.08,163386 3047.68,164058 3983.3,164058L170115,164058C171050,164058 171810,163386 171810,162559L171810,3050.59Z" style="fill:rgb(244,244,244);stroke:rgb(35,31,32);stroke-width:356.9px;"/>
        </g>
        <g transform="matrix(0.0019685,0,0,-0.0019685,0,84.95)">
            <rect x="5204.68" y="8635.84" width="25882.9" height="25882.9" style="fill-opacity:0;"/>
        </g>
        <g transform="matrix(0.370267,0,0,0.370267,10.0974,14.704)">
            <circle cx="14.1" cy="8.7" r="2.5" style="fill:rgb(31,47,96);"/>
            <path d="M15.9,12L12.3,12C10.9,12 9.7,13.1 9.7,14.5L9.7,19.7C9.7,20.9 10.6,22 11.8,22.2L11.8,27.8C11.8,28.8 12.6,29.7 13.7,29.7L14.5,29.7C15.5,29.7 16.4,28.9 16.4,27.8L16.4,22.2C17.6,22 18.5,20.9 18.5,19.7L18.5,14.5C18.5,13.1 17.3,12 15.9,12Z" style="fill:rgb(31,47,96);fill-rule:nonzero;"/>
            <circle cx="14.1" cy="34.5" r="2.5" style="fill:rgb(31,47,96);"/>
            <path d="M15.9,37.7L12.3,37.7C10.9,37.7 9.7,38.8 9.7,40.2L9.7,45.4C9.7,46.6 10.6,47.7 11.8,47.9L11.8,53.5C11.8,54.5 12.6,55.4 13.7,55.4L14.5,55.4C15.5,55.4 16.4,54.6 16.4,53.5L16.4,47.9C17.6,47.7 18.5,46.6 18.5,45.4L18.5,40.2C18.5,38.9 17.3,37.7 15.9,37.7Z" style="fill:rgb(31,47,96);fill-rule:nonzero;"/>
            <circle cx="14.1" cy="60.2" r="2.5" style="fill:rgb(31,47,96);"/>
            <path d="M15.9,63.5L12.3,63.5C10.9,63.5 9.7,64.6 9.7,66L9.7,71.2C9.7,72.4 10.6,73.5 11.8,73.7L11.8,79.3C11.8,80.3 12.6,81.2 13.7,81.2L14.5,81.2C15.5,81.2 16.4,80.4 16.4,79.3L16.4,73.7C17.6,73.5 18.5,72.4 18.5,71.2L18.5,66C18.5,64.6 17.3,63.5 15.9,63.5Z" style="fill:rgb(31,47,96);fill-rule:nonzero;"/>
            <circle cx="24.4" cy="21.3" r="2.5" style="fill:rgb(31,47,96);"/>
            <path d="M26.2,24.5L22.6,24.5C21.2,24.5 20,25.6 20,27L20,32.2C20,33.4 20.9,34.5 22.1,34.7L22.1,40.3C22.1,41.3 22.9,42.2 24,42.2L24.8,42.2C25.8,42.2 26.7,41.4 26.7,40.3L26.7,34.7C27.9,34.5 28.8,33.4 28.8,32.2L28.8,27C28.7,25.7 27.6,24.5 26.2,24.5Z" style="fill:rgb(31,47,96);fill-rule:nonzero;"/>
            <circle cx="24.4" cy="47" r="2.5" style="fill:rgb(31,47,96);"/>
            <path d="M26.2,50.3L22.6,50.3C21.2,50.3 20,51.4 20,52.8L20,58C20,59.2 20.9,60.3 22.1,60.5L22.1,66.1C22.1,67.1 22.9,68 24,68L24.8,68C25.8,68 26.7,67.2 26.7,66.1L26.7,60.5C27.9,60.3 28.8,59.2 28.8,58L28.8,52.8C28.7,51.4 27.6,50.3 26.2,50.3Z" style="fill:rgb(31,47,96);fill-rule:nonzero;"/>
            <circle cx="24.4" cy="72.7" r="2.5" style="fill:rgb(31,47,96);"/>
            <path d="M26.2,76L22.6,76C21.2,76 20,77.1 20,78.5L20,83.7C20,84.9 20.9,86 22.1,86.2L22.1,91.8C22.1,92.8 22.9,93.7 24,93.7L24.8,93.7C25.8,93.7 26.7,92.9 26.7,91.8L26.7,86.2C27.9,86 28.8,84.9 28.8,83.7L28.8,78.5C28.7,77.1 27.6,76 26.2,76Z" style="fill:rgb(31,47,96);fill-rule:nonzero;"/>
            <circle cx="34.6" cy="34.5" r="2.5" style="fill:rgb(31,47,96);"/>
            <path d="M36.4,37.7L32.8,37.7C31.4,37.7 30.2,38.8 30.2,40.2L30.2,45.4C30.2,46.6 31.1,47.7 32.3,47.9L32.3,53.5C32.3,54.5 33.1,55.4 34.2,55.4L35,55.4C36,55.4 36.9,54.6 36.9,53.5L36.9,47.9C38.1,47.7 39,46.6 39,45.4L39,40.2C39,38.9 37.8,37.7 36.4,37.7Z" style="fill:rgb(31,47,96);fill-rule:nonzero;"/>
            <circle cx="34.6" cy="60.2" r="2.5" style="fill:rgb(31,47,96);"/>
            <path d="M36.4,63.5L32.8,63.5C31.4,63.5 30.2,64.6 30.2,66L30.2,71.2C30.2,72.4 31.1,73.5 32.3,73.7L32.3,79.3C32.3,80.3 33.1,81.2 34.2,81.2L35,81.2C36,81.2 36.9,80.4 36.9,79.3L36.9,73.7C38.1,73.5 39,72.4 39,71.2L39,66C39,64.6 37.8,63.5 36.4,63.5Z" style="fill:rgb(31,47,96);fill-rule:nonzero;"/>
            <circle cx="44.9" cy="47" r="2.5" style="fill:rgb(31,47,96);"/>
            <path d="M46.7,50.3L43.1,50.3C41.7,50.3 40.6,51.4 40.6,52.8L40.6,58C40.6,59.2 41.5,60.3 42.7,60.5L42.7,66.1C42.7,67.1 43.5,68 44.6,68L45.4,68C46.4,68 47.3,67.2 47.3,66.1L47.3,60.5C48.5,60.3 49.4,59.2 49.4,58L49.4,52.8C49.2,51.4 48.1,50.3 46.7,50.3Z" style="fill:rgb(31,47,96);fill-rule:nonzero;"/>
            <circle cx="44.9" cy="72.7" r="2.5" style="fill:rgb(31,47,96);"/>
            <path d="M46.7,76L43.1,76C41.7,76 40.6,77.1 40.6,78.5L40.6,83.7C40.6,84.9 41.5,86 42.7,86.2L42.7,91.8C42.7,92.8 43.5,93.7 44.6,93.7L45.4,93.7C46.4,93.7 47.3,92.9 47.3,91.8L47.3,86.2C48.5,86 49.4,84.9 49.4,83.7L49.4,78.5C49.2,77.1 48.1,76 46.7,76Z" style="fill:rgb(31,47,96);fill-rule:nonzero;"/>
            <circle cx="55.1" cy="60.2" r="2.5" style="fill:rgb(31,47,96);"/>
            <path d="M56.9,63.5L53.3,63.5C51.9,63.5 50.8,64.6 50.8,66L50.8,71.2C50.8,72.4 51.7,73.5 52.9,73.7L52.9,79.3C52.9,80.3 53.7,81.2 54.8,81.2L55.6,81.2C56.6,81.2 57.5,80.4 57.5,79.3L57.5,73.7C58.7,73.5 59.6,72.4 59.6,71.2L59.6,66C59.5,64.6 58.3,63.5 56.9,63.5Z" style="fill:rgb(31,47,96);fill-rule:nonzero;"/>
            <circle cx="65.4" cy="72.7" r="2.5" style="fill:rgb(31,47,96);"/>
            <path d="M67.2,76L63.6,76C62.2,76 61.1,77.1 61.1,78.5L61.1,83.7C61.1,84.9 62,86 63.2,86.2L63.2,91.8C63.2,92.8 64,93.7 65.1,93.7L65.9,93.7C66.9,93.7 67.8,92.9 67.8,91.8L67.8,86.2C69,86 69.9,84.9 69.9,83.7L69.9,78.5C69.7,77.1 68.6,76 67.2,76Z" style="fill:rgb(31,47,96);fill-rule:nonzero;"/>
            <circle cx="34.6" cy="8.7" r="2.5" style="fill:rgb(31,47,96);"/>
            <path d="M35.9,12L33.3,12C31.9,12 30.9,13.1 30.8,14.5L30,21.4C29.9,22.6 31.2,23.7 32.4,23.9L32.4,27.8C32.4,28.8 33.2,29.7 34.3,29.7L35,29.7C36,29.7 36.9,28.9 36.9,27.8L36.9,23.9C38.1,23.7 39.4,22.6 39.3,21.4L38.5,14.5C38.3,13.2 37.3,12 35.9,12Z" style="fill:rgb(31,47,96);fill-rule:nonzero;"/>
            <circle cx="55.1" cy="8.7" r="2.5" style="fill:rgb(31,47,96);"/>
            <path d="M56.4,12L53.8,12C52.4,12 51.4,13.1 51.3,14.5L50.5,21.4C50.4,22.6 51.7,23.7 52.9,23.9L52.9,27.8C52.9,28.8 53.7,29.7 54.8,29.7L55.6,29.7C56.6,29.7 57.5,28.9 57.5,27.8L57.5,23.9C58.7,23.7 60,22.6 59.9,21.4L59,14.5C58.8,13.2 57.8,12 56.4,12Z" style="fill:rgb(31,47,96);fill-rule:nonzero;"/>
            <circle cx="75.6" cy="8.7" r="2.5" style="fill:rgb(31,47,96);"/>
            <path d="M76.9,12L74.3,12C72.9,12 71.9,13.1 71.7,14.5L71,21.4C70.9,22.6 72.2,23.7 73.4,23.9L73.4,27.8C73.4,28.8 74.2,29.7 75.3,29.7L76,29.7C77,29.7 77.9,28.9 77.9,27.8L77.9,23.9C79.1,23.7 80.4,22.6 80.3,21.4L79.5,14.5C79.3,13.2 78.3,12 76.9,12Z" style="fill:rgb(31,47,96);fill-rule:nonzero;"/>
            <circle cx="44.9" cy="21.3" r="2.5" style="fill:rgb(31,47,96);"/>
            <path d="M46.2,24.5L43.6,24.5C42.2,24.5 41.2,25.6 41,27L40.2,34C40.1,35.2 41.4,36.3 42.6,36.5L42.6,40.4C42.6,41.4 43.4,42.3 44.5,42.3L45.3,42.3C46.3,42.3 47.2,41.5 47.2,40.4L47.2,36.5C48.4,36.3 49.7,35.2 49.6,34L48.8,27.1C48.6,25.7 47.6,24.5 46.2,24.5Z" style="fill:rgb(31,47,96);fill-rule:nonzero;"/>
            <circle cx="65.4" cy="21.3" r="2.5" style="fill:rgb(31,47,96);"/>
            <path d="M66.7,24.5L64.1,24.5C62.7,24.5 61.7,25.6 61.5,27L60.7,34C60.6,35.2 61.9,36.3 63.1,36.5L63.1,40.4C63.1,41.4 63.9,42.3 65,42.3L65.8,42.3C66.8,42.3 67.7,41.5 67.7,40.4L67.7,36.5C68.9,36.3 70.2,35.2 70.1,34L69.3,27.1C69.1,25.7 68.1,24.5 66.7,24.5Z" style="fill:rgb(31,47,96);fill-rule:nonzero;"/>
            <circle cx="85.9" cy="21.3" r="2.5" style="fill:rgb(31,47,96);"/>
            <path d="M87.2,24.5L84.6,24.5C83.2,24.5 82.2,25.6 82,27L81.2,34C81.1,35.2 82.4,36.3 83.6,36.5L83.6,40.4C83.6,41.4 84.4,42.3 85.5,42.3L86.3,42.3C87.3,42.3 88.2,41.5 88.2,40.4L88.2,36.5C89.4,36.3 90.7,35.2 90.6,34L89.8,27.1C89.6,25.7 88.6,24.5 87.2,24.5Z" style="fill:rgb(31,47,96);fill-rule:nonzero;"/>
            <circle cx="55.1" cy="34.6" r="2.5" style="fill:rgb(31,47,96);"/>
            <path d="M56.4,37.9L53.8,37.9C52.4,37.9 51.4,39 51.3,40.4L50.5,47.3C50.4,48.5 51.7,49.6 52.9,49.8L52.9,53.7C52.9,54.7 53.7,55.6 54.8,55.6L55.6,55.6C56.6,55.6 57.5,54.8 57.5,53.7L57.5,49.8C58.7,49.6 60,48.5 59.9,47.3L59,40.4C58.8,39 57.8,37.9 56.4,37.9Z" style="fill:rgb(31,47,96);fill-rule:nonzero;"/>
            <circle cx="75.6" cy="34.6" r="2.5" style="fill:rgb(31,47,96);"/>
            <path d="M76.9,37.9L74.3,37.9C72.9,37.9 71.9,39 71.7,40.4L71,47.3C70.9,48.5 72.2,49.6 73.4,49.8L73.4,53.7C73.4,54.7 74.2,55.6 75.3,55.6L76,55.6C77,55.6 77.9,54.8 77.9,53.7L77.9,49.8C79.1,49.6 80.4,48.5 80.3,47.3L79.5,40.4C79.3,39 78.3,37.9 76.9,37.9Z" style="fill:rgb(31,47,96);fill-rule:nonzero;"/>
            <circle cx="65.4" cy="47.1" r="2.5" style="fill:rgb(31,47,96);"/>
            <path d="M66.7,50.4L64.1,50.4C62.7,50.4 61.7,51.5 61.5,52.9L60.7,59.8C60.6,61 61.9,62.1 63.1,62.3L63.1,66.2C63.1,67.2 63.9,68.1 65,68.1L65.8,68.1C66.8,68.1 67.7,67.3 67.7,66.2L67.7,62.3C68.9,62.1 70.2,61 70.1,59.8L69.3,52.9C69.1,51.6 68.1,50.4 66.7,50.4Z" style="fill:rgb(31,47,96);fill-rule:nonzero;"/>
            <circle cx="85.9" cy="47.1" r="2.5" style="fill:rgb(31,47,96);"/>
            <path d="M87.2,50.4L84.6,50.4C83.2,50.4 82.2,51.5 82,52.9L81.2,59.8C81.1,61 82.4,62.1 83.6,62.3L83.6,66.2C83.6,67.2 84.4,68.1 85.5,68.1L86.3,68.1C87.3,68.1 88.2,67.3 88.2,66.2L88.2,62.3C89.4,62.1 90.7,61 90.6,59.8L89.8,52.9C89.6,51.6 88.6,50.4 87.2,50.4Z" style="fill:rgb(31,47,96);fill-rule:nonzero;"/>
            <circle cx="75.6" cy="60.5" r="2.5" style="fill:rgb(31,47,96);"/>
            <path d="M76.9,63.7L74.3,63.7C72.9,63.7 71.9,64.8 71.7,66.2L71,73.1C70.9,74.3 72.2,75.4 73.4,75.6L73.4,79.5C73.4,80.5 74.2,81.4 75.3,81.4L76,81.4C77,81.4 77.9,80.6 77.9,79.5L77.9,75.6C79.1,75.4 80.4,74.3 80.3,73.1L79.5,66.2C79.3,64.9 78.3,63.7 76.9,63.7Z" style="fill:rgb(31,47,96);fill-rule:nonzero;"/>
            <circle cx="85.9" cy="73" r="2.5" style="fill:rgb(31,47,96);"/>
            <path d="M87.2,76.2L84.6,76.2C83.2,76.2 82.2,77.3 82,78.8L81.2,85.7C81.1,86.9 82.4,88 83.6,88.2L83.6,92.1C83.6,93.1 84.4,94 85.5,94L86.3,94C87.3,94 88.2,93.2 88.2,92.1L88.2,88.2C89.4,88 90.7,86.9 90.6,85.7L89.8,78.8C89.6,77.4 88.6,76.2 87.2,76.2Z" style="fill:rgb(31,47,96);fill-rule:nonzero;"/>
        </g>
        <g transform="matrix(0.0019685,0,0,-0.0019685,0,123.019)">
            <rect x="31087.4" y="3546.96" width="140722" height="55399.8" style="fill-opacity:0;"/>
        </g>
        <g transform="matrix(0.0019685,0,0,-0.0019685,0,359.462)">
            <rect x="5204.8" y="78361.9" width="25882.9" height="25882.9" style="fill-opacity:0;"/>
        </g>
        <g transform="matrix(0.0019685,0,0,-0.0019685,0,448.983)">
            <rect x="31087.7" y="72799.7" width="140722" height="82484.1" style="fill-opacity:0;"/>
        </g>
        <g transform="matrix(0.0019685,0,0,-0.0019685,0,332.985)">
            <rect x="203526" y="3325.28" width="140722" height="162506" style="fill-opacity:0;"/>
        </g>
        <g transform="matrix(0.0019685,0,0,-0.0019685,0,84.9498)">
            <rect x="179937" y="9782.8" width="23588.9" height="23588.9" style="fill-opacity:0;"/>
        </g>
        <g transform="matrix(0.0019685,-3.15867e-20,3.15867e-20,-0.00222643,-5.17792e-15,367.77)">
            <path d="M516126,2919.91C516126,2092.68 515366,1421.08 514431,1421.08L348299,1421.08C347364,1421.08 346604,2092.68 346604,2919.91L346604,162428C346604,163256 347364,163927 348299,163927L514431,163927C515366,163927 516126,163256 516126,162428L516126,2919.91Z" style="fill:rgb(244,244,244);stroke:rgb(35,31,32);stroke-width:356.9px;"/>
        </g>
        <g transform="matrix(0.0019685,0,0,-0.0019685,0,136.792)">
            <rect x="376600" y="28589.7" width="111588" height="12311.1" style="fill-opacity:0;"/>
        </g>
        <g transform="matrix(0.749999,0,0,-0.75,741.337,79.1431)">
            <rect x="9" y="2.398" width="253.899" height="25.689" style="fill-opacity:0;"/>
        </g>
        <g transform="matrix(1.05537,0,0,1.05537,-20.9047,-0.768474)">
            <g transform="matrix(0.999998,0,0,1,0.000131162,0)">
                <text x="67.945px" y="23.276px" style="font-family:'GillSans-Bold', 'Gill Sans', sans-serif;font-weight:700;font-size:13.786px;fill:rgb(31,48,96);">4<tspan x="75.542px 83.138px " y="23.276px 23.276px ">13</tspan></text>
            </g>
            <g transform="matrix(0.999998,0,0,1,0.000175153,0)">
                <text x="90.734px" y="23.276px" style="font-family:'GillSans-Bold', 'Gill Sans', sans-serif;font-weight:700;font-size:13.786px;fill:rgb(31,48,96);">,</text>
            </g>
            <g transform="matrix(0.999998,0,0,1,0.000182338,0)">
                <text x="94.456px" y="23.276px" style="font-family:'GillSans-Bold', 'Gill Sans', sans-serif;font-weight:700;font-size:13.786px;fill:rgb(31,48,96);">1<tspan x="102.053px 109.649px " y="23.276px 23.276px ">38</tspan></text>
            </g>
            <g transform="matrix(0.999998,0,0,1,0.00023308,0)">
                <text x="120.742px" y="23.276px" style="font-family:'GillSans-Bold', 'Gill Sans', sans-serif;font-weight:700;font-size:13.786px;fill:rgb(31,48,96);">P</text>
            </g>
            <g transform="matrix(0.999998,0,0,1,0.000249739,0)">
                <text x="129.372px" y="23.276px" style="font-family:'GillSans-Bold', 'Gill Sans', sans-serif;font-weight:700;font-size:13.786px;fill:rgb(31,48,96);">a</text>
            </g>
            <g transform="matrix(0.999998,0,0,1,0.000263844,0)">
                <text x="136.678px" y="23.276px" style="font-family:'GillSans-Bold', 'Gill Sans', sans-serif;font-weight:700;font-size:13.786px;fill:rgb(31,48,96);">r</text>
            </g>
            <g transform="matrix(0.999998,0,0,1,0.000276299,0)">
                <text x="143.13px" y="23.276px" style="font-family:'GillSans-Bold', 'Gill Sans', sans-serif;font-weight:700;font-size:13.786px;fill:rgb(31,48,96);">t</text>
            </g>
            <g transform="matrix(0.999998,0,0,1,0.000287077,0)">
                <text x="148.714px" y="23.276px" style="font-family:'GillSans-Bold', 'Gill Sans', sans-serif;font-weight:700;font-size:13.786px;fill:rgb(31,48,96);">i</text>
            </g>
            <g transform="matrix(0.999998,0,0,1,0.000294263,0)">
                <text x="152.436px" y="23.276px" style="font-family:'GillSans-Bold', 'Gill Sans', sans-serif;font-weight:700;font-size:13.786px;fill:rgb(31,48,96);">c</text>
            </g>
            <g transform="matrix(0.999998,0,0,1,0.000307569,0)">
                <text x="159.329px" y="23.276px" style="font-family:'GillSans-Bold', 'Gill Sans', sans-serif;font-weight:700;font-size:13.786px;fill:rgb(31,48,96);">i</text>
            </g>
            <g transform="matrix(0.999998,0,0,1,0.000314754,0)">
                <text x="163.051px" y="23.276px" style="font-family:'GillSans-Bold', 'Gill Sans', sans-serif;font-weight:700;font-size:13.786px;fill:rgb(31,48,96);">p</text>
            </g>
            <g transform="matrix(0.999998,0,0,1,0.00033027,0)">
                <text x="171.089px" y="23.276px" style="font-family:'GillSans-Bold', 'Gill Sans', sans-serif;font-weight:700;font-size:13.786px;fill:rgb(31,48,96);">a</text>
            </g>
            <g transform="matrix(0.999998,0,0,1,0.000344375,0)">
                <text x="178.395px" y="23.276px" style="font-family:'GillSans-Bold', 'Gill Sans', sans-serif;font-weight:700;font-size:13.786px;fill:rgb(31,48,96);">n</text>
            </g>
            <g transform="matrix(0.999998,0,0,1,0.00035989,0)">
                <text x="186.433px" y="23.276px" style="font-family:'GillSans-Bold', 'Gill Sans', sans-serif;font-weight:700;font-size:13.786px;fill:rgb(31,48,96);">t</text>
            </g>
            <g transform="matrix(0.999998,0,0,1,0.000370668,0)">
                <text x="192.016px" y="23.276px" style="font-family:'GillSans-Bold', 'Gill Sans', sans-serif;font-weight:700;font-size:13.786px;fill:rgb(31,48,96);">s</text>
            </g>
            <g transform="matrix(0.999998,0,0,1,0.000389999,0)">
                <text x="202.03px" y="23.276px" style="font-family:'GillSans-Bold', 'Gill Sans', sans-serif;font-weight:700;font-size:13.786px;fill:rgb(31,48,96);">t</text>
            </g>
            <g transform="matrix(0.999998,0,0,1,0.000400777,0)">
                <text x="207.613px" y="23.276px" style="font-family:'GillSans-Bold', 'Gill Sans', sans-serif;font-weight:700;font-size:13.786px;fill:rgb(31,48,96);">o</text>
            </g>
            <g transform="matrix(0.999998,0,0,1,0.000423258,0)">
                <text x="219.259px" y="23.276px" style="font-family:'GillSans-Bold', 'Gill Sans', sans-serif;font-weight:700;font-size:13.786px;fill:rgb(31,48,96);">t</text>
            </g>
            <g transform="matrix(0.999998,0,0,1,0.000434036,0)">
                <text x="224.843px" y="23.276px" style="font-family:'GillSans-Bold', 'Gill Sans', sans-serif;font-weight:700;font-size:13.786px;fill:rgb(31,48,96);">h</text>
            </g>
            <g transform="matrix(0.999998,0,0,1,0.000449551,0)">
                <text x="232.88px" y="23.276px" style="font-family:'GillSans-Bold', 'Gill Sans', sans-serif;font-weight:700;font-size:13.786px;fill:rgb(31,48,96);">e</text>
            </g>
            <g transform="matrix(0.999998,0,0,1,0.000472286,0)">
                <text x="244.657px" y="23.276px" style="font-family:'GillSans-Bold', 'Gill Sans', sans-serif;font-weight:700;font-size:13.786px;fill:rgb(31,48,96);">U</text>
            </g>
            <g transform="matrix(0.999998,0,0,1,0.000494149,0)">
                <text x="255.983px" y="23.276px" style="font-family:'GillSans-Bold', 'Gill Sans', sans-serif;font-weight:700;font-size:13.786px;fill:rgb(31,48,96);">K</text>
            </g>
            <g transform="matrix(0.999998,0,0,1,0.000520695,0)">
                <text x="269.734px" y="23.276px" style="font-family:'GillSans-Bold', 'Gill Sans', sans-serif;font-weight:700;font-size:13.786px;fill:rgb(31,48,96);">B</text>
            </g>
            <g transform="matrix(0.999998,0,0,1,0.00053927,0)">
                <text x="279.357px" y="23.276px" style="font-family:'GillSans-Bold', 'Gill Sans', sans-serif;font-weight:700;font-size:13.786px;fill:rgb(31,48,96);">i</text>
            </g>
            <g transform="matrix(0.999998,0,0,1,0.000546456,0)">
                <text x="283.079px" y="23.276px" style="font-family:'GillSans-Bold', 'Gill Sans', sans-serif;font-weight:700;font-size:13.786px;fill:rgb(31,48,96);">o</text>
            </g>
            <g transform="matrix(0.999998,0,0,1,0.000562264,0)">
                <text x="291.268px" y="23.276px" style="font-family:'GillSans-Bold', 'Gill Sans', sans-serif;font-weight:700;font-size:13.786px;fill:rgb(31,48,96);">b</text>
            </g>
            <g transform="matrix(0.999998,0,0,1,0.000577779,0)">
                <text x="299.305px" y="23.276px" style="font-family:'GillSans-Bold', 'Gill Sans', sans-serif;font-weight:700;font-size:13.786px;fill:rgb(31,48,96);">a</text>
            </g>
            <g transform="matrix(0.999998,0,0,1,0.000591884,0)">
                <text x="306.612px" y="23.276px" style="font-family:'GillSans-Bold', 'Gill Sans', sans-serif;font-weight:700;font-size:13.786px;fill:rgb(31,48,96);">n<tspan x="314.65px " y="23.276px ">k</tspan></text>
            </g>
            <g transform="matrix(0.999998,0,0,1,0.000141247,0)">
                <text x="73.17px" y="43.196px" style="font-family:'ArialMT', 'Arial', sans-serif;font-size:13.061px;">•</text>
            </g>
            <g transform="matrix(0.999998,0,0,1,0.00016814,0)">
                <text x="87.101px" y="43.196px" style="font-family:'GillSans', 'Gill Sans', sans-serif;font-size:13.061px;">Unr<tspan x="107.789px " y="43.196px ">e</tspan>lated individuals of Eur<tspan x="233.16px " y="43.196px ">o</tspan>pean ancestr<tspan x="307.901px " y="43.196px ">y</tspan> and</text>
            </g>
            <g transform="matrix(0.999998,0,0,1,0.00016814,0)">
                <text x="87.101px" y="57.824px" style="font-family:'GillSans', 'Gill Sans', sans-serif;font-size:13.061px;">with high variant and sample completion rates</text>
            </g>
            <g transform="matrix(0.999998,0,0,1,0.000141247,0)">
                <text x="73.17px" y="79.708px" style="font-family:'ArialMT', 'Arial', sans-serif;font-size:13.061px;">•</text>
            </g>
            <g transform="matrix(0.999998,0,0,1,0.000169466,0)">
                <text x="87.788px" y="79.708px" style="font-family:'GillSans', 'Gill Sans', sans-serif;font-size:13.061px;">A<tspan x="96.174px " y="79.708px ">v</tspan>ailable linkage to cancer<tspan x="226.442px 227.998px " y="79.708px 79.708px ">, </tspan>hospitalization and</text>
            </g>
            <g transform="matrix(0.999998,0,0,1,0.00016814,0)">
                <text x="87.101px" y="94.336px" style="font-family:'GillSans', 'Gill Sans', sans-serif;font-size:13.061px;">death r<tspan x="125.008px " y="94.336px ">e</tspan>gistries</text>
            </g>
            <g transform="matrix(0.999998,0,0,1,0.000141247,0)">
                <text x="73.17px" y="116.22px" style="font-family:'ArialMT', 'Arial', sans-serif;font-size:13.061px;">•</text>
            </g>
            <g transform="matrix(0.999998,0,0,1,0.000169466,0)">
                <text x="87.788px" y="116.22px" style="font-family:'GillSans', 'Gill Sans', sans-serif;font-size:13.061px;">Panel of biomark<tspan x="176.681px " y="116.22px ">e</tspan>rs fr<tspan x="204.875px " y="116.22px ">o</tspan>m urine and blood</text>
            </g>
            <g transform="matrix(0.999998,0,0,1,0.00016814,0)">
                <text x="87.101px" y="130.848px" style="font-family:'GillSans', 'Gill Sans', sans-serif;font-size:13.061px;">samples</text>
            </g>
        </g>
        <g transform="matrix(1,0,0,1,-17.1433,13.311)">
            <g transform="matrix(0.999998,0,0,1,0.000131163,0)">
                <text x="67.946px" y="160.121px" style="font-family:'GillSans-Bold', 'Gill Sans', sans-serif;font-weight:700;font-size:14.55px;fill:rgb(31,48,96);">E</text>
            </g>
            <g transform="matrix(0.999998,0,0,1,0.00014897,0)">
                <text x="77.17px" y="160.121px" style="font-family:'GillSans-Bold', 'Gill Sans', sans-serif;font-weight:700;font-size:14.55px;fill:rgb(31,48,96);">n<tspan x="85.619px " y="160.121px ">s</tspan></text>
            </g>
            <g transform="matrix(0.999998,0,0,1,0.000177309,0)">
                <text x="91.851px" y="160.121px" style="font-family:'GillSans-Bold', 'Gill Sans', sans-serif;font-weight:700;font-size:14.55px;fill:rgb(31,48,96);">e</text>
            </g>
            <g transform="matrix(0.999998,0,0,1,0.000192785,0)">
                <text x="99.868px" y="160.121px" style="font-family:'GillSans-Bold', 'Gill Sans', sans-serif;font-weight:700;font-size:14.55px;fill:rgb(31,48,96);">m</text>
            </g>
            <g transform="matrix(0.999998,0,0,1,0.000219691,0)">
                <text x="113.806px" y="160.121px" style="font-family:'GillSans-Bold', 'Gill Sans', sans-serif;font-weight:700;font-size:14.55px;fill:rgb(31,48,96);">b</text>
            </g>
            <g transform="matrix(0.999998,0,0,1,0.000235813,0)">
                <text x="122.158px" y="160.121px" style="font-family:'GillSans-Bold', 'Gill Sans', sans-serif;font-weight:700;font-size:14.55px;fill:rgb(31,48,96);">l</text>
            </g>
            <g transform="matrix(0.999998,0,0,1,0.000250719,0)">
                <text x="129.879px" y="160.121px" style="font-family:'GillSans-Bold', 'Gill Sans', sans-serif;font-weight:700;font-size:14.55px;fill:rgb(31,48,96);">8<tspan x="137.908px " y="160.121px ">7</tspan></text>
            </g>
            <g transform="matrix(0.999998,0,0,1,0.000289907,0)">
                <text x="150.18px" y="160.121px" style="font-family:'GillSans-Bold', 'Gill Sans', sans-serif;font-weight:700;font-size:14.55px;fill:rgb(31,48,96);">a</text>
            </g>
            <g transform="matrix(0.999998,0,0,1,0.000304748,0)">
                <text x="157.868px" y="160.121px" style="font-family:'GillSans-Bold', 'Gill Sans', sans-serif;font-weight:700;font-size:14.55px;fill:rgb(31,48,96);">s</text>
            </g>
            <g transform="matrix(0.999998,0,0,1,0.000324538,0)">
                <text x="168.12px" y="160.121px" style="font-family:'GillSans-Bold', 'Gill Sans', sans-serif;font-weight:700;font-size:14.55px;fill:rgb(31,48,96);">a</text>
            </g>
            <g transform="matrix(0.999998,0,0,1,0.000346616,0)">
                <text x="179.557px" y="160.121px" style="font-family:'GillSans-Bold', 'Gill Sans', sans-serif;font-weight:700;font-size:14.55px;fill:rgb(31,48,96);">r</text>
            </g>
            <g transform="matrix(0.999998,0,0,1,0.000358637,0)">
                <text x="185.784px" y="160.121px" style="font-family:'GillSans-Bold', 'Gill Sans', sans-serif;font-weight:700;font-size:14.55px;fill:rgb(31,48,96);">e</text>
            </g>
            <g transform="matrix(0.999998,0,0,1,0.000374113,0)">
                <text x="193.801px" y="160.121px" style="font-family:'GillSans-Bold', 'Gill Sans', sans-serif;font-weight:700;font-size:14.55px;fill:rgb(31,48,96);">f</text>
            </g>
            <g transform="matrix(0.999998,0,0,1,0.000382314,0)">
                <text x="198.049px" y="160.121px" style="font-family:'GillSans-Bold', 'Gill Sans', sans-serif;font-weight:700;font-size:14.55px;fill:rgb(31,48,96);">e</text>
            </g>
            <g transform="matrix(0.999998,0,0,1,0.000397789,0)">
                <text x="206.066px" y="160.121px" style="font-family:'GillSans-Bold', 'Gill Sans', sans-serif;font-weight:700;font-size:14.55px;fill:rgb(31,48,96);">r</text>
            </g>
            <g transform="matrix(0.999998,0,0,1,0.00040981,0)">
                <text x="212.293px" y="160.121px" style="font-family:'GillSans-Bold', 'Gill Sans', sans-serif;font-weight:700;font-size:14.55px;fill:rgb(31,48,96);">e</text>
            </g>
            <g transform="matrix(0.999998,0,0,1,0.000425286,0)">
                <text x="220.31px" y="160.121px" style="font-family:'GillSans-Bold', 'Gill Sans', sans-serif;font-weight:700;font-size:14.55px;fill:rgb(31,48,96);">n</text>
            </g>
            <g transform="matrix(0.999998,0,0,1,0.00044166,0)">
                <text x="228.792px" y="160.121px" style="font-family:'GillSans-Bold', 'Gill Sans', sans-serif;font-weight:700;font-size:14.55px;fill:rgb(31,48,96);">c</text>
            </g>
            <g transform="matrix(0.999998,0,0,1,0.000455704,0)">
                <text x="236.067px" y="160.121px" style="font-family:'GillSans-Bold', 'Gill Sans', sans-serif;font-weight:700;font-size:14.55px;fill:rgb(31,48,96);">e</text>
            </g>
            <g transform="matrix(0.999998,0,0,1,0.000479547,0)">
                <text x="248.418px" y="160.121px" style="font-family:'GillSans-Bold', 'Gill Sans', sans-serif;font-weight:700;font-size:14.55px;fill:rgb(31,48,96);">f</text>
            </g>
            <g transform="matrix(0.999998,0,0,1,0.000487748,0)">
                <text x="252.667px" y="160.121px" style="font-family:'GillSans-Bold', 'Gill Sans', sans-serif;font-weight:700;font-size:14.55px;fill:rgb(31,48,96);">o<tspan x="261.316px " y="160.121px ">r</tspan></text>
            </g>
            <g transform="matrix(0.999998,0,0,1,0.00052407,0)">
                <text x="271.483px" y="160.121px" style="font-family:'GillSans-Bold', 'Gill Sans', sans-serif;font-weight:700;font-size:14.55px;fill:rgb(31,48,96);">g</text>
            </g>
            <g transform="matrix(0.999998,0,0,1,0.000538843,0)">
                <text x="279.136px" y="160.121px" style="font-family:'GillSans-Bold', 'Gill Sans', sans-serif;font-weight:700;font-size:14.55px;fill:rgb(31,48,96);">e</text>
            </g>
            <g transform="matrix(0.999998,0,0,1,0.000554319,0)">
                <text x="287.152px" y="160.121px" style="font-family:'GillSans-Bold', 'Gill Sans', sans-serif;font-weight:700;font-size:14.55px;fill:rgb(31,48,96);">n</text>
            </g>
            <g transform="matrix(0.999998,0,0,1,0.000570693,0)">
                <text x="295.635px" y="160.121px" style="font-family:'GillSans-Bold', 'Gill Sans', sans-serif;font-weight:700;font-size:14.55px;fill:rgb(31,48,96);">e<tspan x="303.652px " y="160.121px ">s</tspan></text>
            </g>
            <g transform="matrix(0.999998,0,0,1,0.000141806,0)">
                <text x="73.46px" y="180.041px" style="font-family:'ArialMT', 'Arial', sans-serif;font-size:13.784px;">•</text>
            </g>
            <g transform="matrix(0.999998,0,0,1,0.000169467,0)">
                <text x="87.789px" y="180.041px" style="font-family:'GillSans', 'Gill Sans', sans-serif;font-size:13.784px;">Extracted common (MAF abo<tspan x="253.766px 259.527px " y="180.041px 180.041px ">ve</tspan> 1%) SNPs</text>
            </g>
            <g transform="matrix(0.999998,0,0,1,0.000170189,0)">
                <text x="88.162px" y="195.636px" style="font-family:'GillSans', 'Gill Sans', sans-serif;font-size:13.784px;">with high imputation quality (INFO abo<tspan x="307.491px 313.253px " y="195.636px 195.636px ">ve</tspan> 0.6)</text>
            </g>
            <g transform="matrix(0.999998,0,0,1,0.000170189,0)">
                <text x="88.162px" y="211.23px" style="font-family:'GillSans', 'Gill Sans', sans-serif;font-size:13.784px;">f<tspan x="91.474px " y="211.23px ">o</tspan>r</text>
            </g>
            <g transform="matrix(0.999998,0,0,1,0.000209191,0)">
                <text x="108.367px" y="211.23px" style="font-family:'GillSans-Bold', 'Gill Sans', sans-serif;font-weight:700;font-size:13.784px;fill:rgb(31,48,96);">26,616 protein coding</text>
            </g>
            <g transform="matrix(0.999998,0,0,1,0.000500257,0)">
                <text x="262.976px" y="211.23px" style="font-family:'GillSans', 'Gill Sans', sans-serif;font-size:13.784px;">and</text>
            </g>
            <g transform="matrix(0.999998,0,0,1,0.000553266,0)">
                <text x="286.607px" y="211.23px" style="font-family:'GillSans-Bold', 'Gill Sans', sans-serif;font-weight:700;font-size:13.784px;fill:rgb(31,48,96);">lincRNA</text>
            </g>
            <g transform="matrix(0.999998,0,0,1,0.000170189,0)">
                <text x="88.162px" y="226.825px" style="font-family:'GillSans', 'Gill Sans', sans-serif;font-size:13.784px;">genes</text>
            </g>
            <g transform="matrix(0.999998,0,0,1,0.000141806,0)">
                <text x="73.46px" y="249.311px" style="font-family:'ArialMT', 'Arial', sans-serif;font-size:13.784px;">•</text>
            </g>
            <g transform="matrix(0.999998,0,0,1,0.000169385,0)">
                <text x="87.746px" y="249.311px" style="font-family:'GillSans', 'Gill Sans', sans-serif;font-size:13.784px;">Pad<tspan x="107.547px " y="249.311px ">d</tspan>ing of 1.5 kb upstr<tspan x="215.899px " y="249.311px ">e</tspan>am and 1 kb</text>
            </g>
            <g transform="matrix(0.999998,0,0,1,0.000170189,0)">
                <text x="88.162px" y="264.906px" style="font-family:'GillSans', 'Gill Sans', sans-serif;font-size:13.784px;">do<tspan x="102.66px " y="264.906px ">w</tspan>nstr<tspan x="134.541px " y="264.906px ">e</tspan>am was ad<tspan x="199.186px " y="264.906px ">d</tspan>ed</text>
            </g>
            <g transform="matrix(0.999998,0,0,1,0.000141806,0)">
                <text x="73.46px" y="287.392px" style="font-family:'ArialMT', 'Arial', sans-serif;font-size:13.784px;">•</text>
            </g>
            <g transform="matrix(0.999998,0,0,1,0.000169467,0)">
                <text x="87.789px" y="287.392px" style="font-family:'GillSans', 'Gill Sans', sans-serif;font-size:13.784px;">W<tspan x="100.913px " y="287.392px ">e</tspan> did a</text>
            </g>
            <g transform="matrix(0.999998,0,0,1,0.000274132,0)">
                <text x="142.008px" y="287.392px" style="font-family:'GillSans-Bold', 'Gill Sans', sans-serif;font-weight:700;font-size:13.784px;fill:rgb(31,48,96);">Principal Component Analysis</text>
            </g>
            <g transform="matrix(0.999998,0,0,1,0.000170189,0)">
                <text x="88.162px" y="302.987px" style="font-family:'GillSans-Bold', 'Gill Sans', sans-serif;font-weight:700;font-size:13.784px;fill:rgb(31,48,96);">(PCA)</text>
            </g>
            <g transform="matrix(0.999998,0,0,1,0.00025914,0)">
                <text x="134.241px" y="302.987px" style="font-family:'GillSans', 'Gill Sans', sans-serif;font-size:13.784px;">of the extracted genotypes and</text>
            </g>
            <g transform="matrix(0.999998,0,0,1,0.000170189,0)">
                <text x="88.162px" y="318.582px" style="font-family:'GillSans', 'Gill Sans', sans-serif;font-size:13.784px;">r<tspan x="93.345px " y="318.582px ">e</tspan>tained the principal components explaining</text>
            </g>
            <g transform="matrix(0.999998,0,0,1,0.000170189,0)">
                <text x="88.162px" y="334.176px" style="font-family:'GillSans', 'Gill Sans', sans-serif;font-size:13.784px;">at least</text>
            </g>
            <g transform="matrix(0.999998,0,0,1,0.000254282,0)">
                <text x="131.725px" y="334.176px" style="font-family:'GillSans-Bold', 'Gill Sans', sans-serif;font-weight:700;font-size:13.784px;fill:rgb(31,48,96);">95% of the variance</text>
            </g>
            <g transform="matrix(0.999998,0,0,1,0.00052465,0)">
                <text x="271.783px" y="334.176px" style="font-family:'GillSans', 'Gill Sans', sans-serif;font-size:13.784px;">in genotypes</text>
            </g>
        </g>
        <g transform="matrix(1,0,0,1,-15.6857,0.436379)">
            <g transform="matrix(0.999998,0,0,1,0.000786426,0)">
                <text x="407.39px" y="23.36px" style="font-family:'GillSans-Bold', 'Gill Sans', sans-serif;font-weight:700;font-size:14.55px;fill:rgb(31,48,96);">U</text>
            </g>
            <g transform="matrix(0.999998,0,0,1,0.000809541,0)">
                <text x="419.365px" y="23.36px" style="font-family:'GillSans-Bold', 'Gill Sans', sans-serif;font-weight:700;font-size:14.55px;fill:rgb(31,48,96);">K</text>
            </g>
            <g transform="matrix(0.999998,0,0,1,0.000829735,0)">
                <text x="429.826px" y="23.36px" style="font-family:'GillSans-Bold', 'Gill Sans', sans-serif;font-weight:700;font-size:14.55px;fill:rgb(31,48,96);">B</text>
            </g>
            <g transform="matrix(0.999998,0,0,1,0.00084934,0)">
                <text x="439.981px" y="23.36px" style="font-family:'GillSans-Bold', 'Gill Sans', sans-serif;font-weight:700;font-size:14.55px;fill:rgb(31,48,96);">P</text>
            </g>
            <g transform="matrix(0.999998,0,0,1,0.000867736,0)">
                <text x="449.511px" y="23.36px" style="font-family:'GillSans-Bold', 'Gill Sans', sans-serif;font-weight:700;font-size:14.55px;fill:rgb(31,48,96);">h</text>
            </g>
            <g transform="matrix(0.999998,0,0,1,0.000884111,0)">
                <text x="457.993px" y="23.36px" style="font-family:'GillSans-Bold', 'Gill Sans', sans-serif;font-weight:700;font-size:14.55px;fill:rgb(31,48,96);">e</text>
            </g>
            <g transform="matrix(0.999998,0,0,1,0.000899586,0)">
                <text x="466.01px" y="23.36px" style="font-family:'GillSans-Bold', 'Gill Sans', sans-serif;font-weight:700;font-size:14.55px;fill:rgb(31,48,96);">W</text>
            </g>
            <g transform="matrix(0.999998,0,0,1,0.000930088,0)">
                <text x="481.811px" y="23.36px" style="font-family:'GillSans-Bold', 'Gill Sans', sans-serif;font-weight:700;font-size:14.55px;fill:rgb(31,48,96);">A<tspan x="493.16px " y="23.36px ">S</tspan></text>
            </g>
            <g transform="matrix(0.999998,0,-0.2,1,8.65685,0)">
                <text x="407.39px" y="43.28px" style="font-family:'GillSans', 'Gill Sans', sans-serif;font-size:13.784px;">Alg<tspan x="425.354px " y="43.28px ">o</tspan>rithmic phenotype deﬁnition</text>
            </g>
            <g transform="matrix(0.999998,0,0,1,0.000800558,0)">
                <text x="414.711px" y="65.767px" style="font-family:'Arial-BoldMT', 'Arial', sans-serif;font-weight:700;font-size:13.784px;fill:rgb(31,48,96);">•</text>
            </g>
            <g transform="matrix(0.999998,0,0,1,0.000809874,0)">
                <text x="427.233px" y="65.767px" style="font-family:'GillSans-Bold', 'Gill Sans', sans-serif;font-weight:700;font-size:13.784px;fill:rgb(31,48,96);"><tspan x="427.233px " y="65.767px ">3</tspan>62</text>
            </g>
            <g transform="matrix(0.999998,0,0,1,0.000872165,0)">
                <text x="455.639px" y="65.767px" style="font-family:'GillSans', 'Gill Sans', sans-serif;font-size:13.784px;">Self-r<tspan x="484.66px " y="65.767px ">e</tspan>por<tspan x="511.494px " y="65.767px ">t</tspan>ed diseases</text>
            </g>
            <g transform="matrix(0.999998,0,0,1,0.000800558,0)">
                <text x="414.711px" y="84.425px" style="font-family:'Arial-BoldMT', 'Arial', sans-serif;font-weight:700;font-size:13.784px;fill:rgb(31,48,96);">•</text>
            </g>
            <g transform="matrix(0.999998,0,0,1,0.000809874,0)">
                <text x="427.233px" y="84.425px" style="font-family:'GillSans-Bold', 'Gill Sans', sans-serif;font-weight:700;font-size:13.784px;fill:rgb(31,48,96);"><tspan x="427.233px " y="84.425px ">2</tspan>1</text>
            </g>
            <g transform="matrix(0.999998,0,0,1,0.000856353,0)">
                <text x="447.444px" y="84.425px" style="font-family:'GillSans', 'Gill Sans', sans-serif;font-size:13.784px;">Man<tspan x="470.845px " y="84.425px ">u</tspan>all<tspan x="489.529px " y="84.425px ">y</tspan> deﬁned car<tspan x="561.436px " y="84.425px ">d</tspan>io<tspan x="578.955px " y="84.425px ">v</tspan>ascular endpoints</text>
            </g>
            <g transform="matrix(0.999998,0,0,1,0.000800558,0)">
                <text x="414.711px" y="103.082px" style="font-family:'Arial-BoldMT', 'Arial', sans-serif;font-weight:700;font-size:13.784px;fill:rgb(31,48,96);">•</text>
            </g>
            <g transform="matrix(0.999998,0,0,1,0.000809874,0)">
                <text x="427.233px" y="103.082px" style="font-family:'GillSans-Bold', 'Gill Sans', sans-serif;font-weight:700;font-size:13.784px;fill:rgb(31,48,96);"><tspan x="427.233px " y="103.082px ">1</tspan>,280</text>
            </g>
            <g transform="matrix(0.999998,0,0,1,0.000896006,0)">
                <text x="468.005px" y="103.082px" style="font-family:'GillSans', 'Gill Sans', sans-serif;font-size:13.784px;">Phecodes</text>
            </g>
            <g transform="matrix(0.999998,0,0,1,0.000800558,0)">
                <text x="414.711px" y="121.74px" style="font-family:'Arial-BoldMT', 'Arial', sans-serif;font-weight:700;font-size:13.784px;fill:rgb(31,48,96);">•</text>
            </g>
            <g transform="matrix(0.999998,0,0,1,0.000809874,0)">
                <text x="427.233px" y="121.74px" style="font-family:'GillSans-Bold', 'Gill Sans', sans-serif;font-weight:700;font-size:13.784px;fill:rgb(31,48,96);"><tspan x="427.233px " y="121.74px ">8</tspan>3</text>
            </g>
            <g transform="matrix(0.999998,0,0,1,0.000856353,0)">
                <text x="447.444px" y="121.74px" style="font-family:'GillSans', 'Gill Sans', sans-serif;font-size:13.784px;">Contin<tspan x="486.07px " y="121.74px ">u</tspan>ous variables (standar<tspan x="613.805px " y="121.74px ">d</tspan>ized</text>
            </g>
            <g transform="matrix(0.999998,0,0,1,0.00082473,0)">
                <text x="427.233px" y="137.334px" style="font-family:'GillSans', 'Gill Sans', sans-serif;font-size:13.784px;">laborator<tspan x="480.039px " y="137.334px ">y</tspan> and anthr<tspan x="542.907px " y="137.334px ">o</tspan>pomorphic</text>
            </g>
            <g transform="matrix(0.999998,0,0,1,0.00082473,0)">
                <text x="427.233px" y="152.929px" style="font-family:'GillSans', 'Gill Sans', sans-serif;font-size:13.784px;">measur<tspan x="467.723px " y="152.929px ">e</tspan>ments)</text>
            </g>
            <g transform="matrix(0.999998,0,-0.2,1,35.8496,0)">
                <text x="407.39px" y="179.244px" style="font-family:'GillSans', 'Gill Sans', sans-serif;font-size:13.784px;">Gene-based,<tspan x="475.495px " y="179.244px "> </tspan>common variant association test</text>
            </g>
            <g transform="matrix(0.999998,0,0,1,0.000800558,0)">
                <text x="414.711px" y="198.444px" style="font-family:'ArialMT', 'Arial', sans-serif;font-size:13.784px;">•</text>
            </g>
            <g transform="matrix(0.999998,0,0,1,0.00082473,0)">
                <text x="427.233px" y="198.444px" style="font-family:'GillSans', 'Gill Sans', sans-serif;font-size:13.784px;">J<tspan x="430.403px " y="198.444px ">o</tspan>int F <tspan x="466.839px " y="198.444px ">t</tspan>est or</text>
            </g>
            <g transform="matrix(0.999998,0,0,1,0.000982279,0)">
                <text x="508.847px" y="198.444px" style="font-family:'STIXGeneral-Regular', 'STIXGeneral';font-size:13.784px;">𝜒</text>
            </g>
            <g transform="matrix(0.999998,0,0,1,0.00099811,0)">
                <text x="517.049px" y="198.444px" style="font-family:'GillSans', 'Gill Sans', sans-serif;font-size:13.784px;">²</text>
            </g>
            <g transform="matrix(0.999998,0,0,1,0.00100671,0)">
                <text x="525.433px" y="198.444px" style="font-family:'GillSans', 'Gill Sans', sans-serif;font-size:13.784px;">test <tspan x="550.449px 553.76px " y="198.444px 198.444px ">fo</tspan>r the <tspan x="592.767px " y="198.444px ">i</tspan>nclusion of <tspan x="660.365px " y="198.444px ">a</tspan>ll</text>
            </g>
            <g transform="matrix(0.999998,0,0,1,0.000824648,0)">
                <text x="427.19px" y="214.039px" style="font-family:'GillSans', 'Gill Sans', sans-serif;font-size:13.784px;">gene-base principal <tspan x="537.283px " y="214.039px ">c</tspan>omponents</text>
            </g>
            <g transform="matrix(0.999998,0,-0.2,1,48.0716,0)">
                <text x="407.39px" y="240.354px" style="font-family:'GillSans', 'Gill Sans', sans-serif;font-size:13.784px;">PheW<tspan x="441.17px " y="240.354px ">A</tspan>S</text>
            </g>
            <g transform="matrix(0.999998,0,0,1,0.000800558,0)">
                <text x="414.711px" y="259.554px" style="font-family:'ArialMT', 'Arial', sans-serif;font-size:13.784px;">•</text>
            </g>
            <g transform="matrix(0.999998,0,0,1,0.00082473,0)">
                <text x="427.233px" y="259.554px" style="font-family:'GillSans', 'Gill Sans', sans-serif;font-size:13.784px;">All tests adjusted f<tspan x="530.005px " y="259.554px ">o</tspan>r age<tspan x="565.542px 567.184px " y="259.554px 259.554px ">, </tspan>sex and</text>
            </g>
            <g transform="matrix(0.999998,0,0,1,0.00119185,0)">
                <text x="617.409px" y="259.554px" style="font-family:'GillSans', 'Gill Sans', sans-serif;font-size:13.784px;">ﬁrst 10</text>
            </g>
            <g transform="matrix(0.999998,0,0,1,0.000825452,0)">
                <text x="427.606px" y="275.149px" style="font-family:'GillSans', 'Gill Sans', sans-serif;font-size:13.784px;">ancestr<tspan x="468.783px " y="275.149px ">y</tspan> principal components</text>
            </g>
            <g transform="matrix(0.999998,0,0,1,0.000800558,0)">
                <text x="414.711px" y="294.349px" style="font-family:'ArialMT', 'Arial', sans-serif;font-size:13.784px;">•</text>
            </g>
            <g transform="matrix(0.999998,0,0,1,0.00082473,0)">
                <text x="427.233px" y="294.349px" style="font-family:'GillSans', 'Gill Sans', sans-serif;font-size:13.784px;">Association tests <tspan x="525.884px 531.766px 536.949px " y="294.349px 294.349px 294.349px ">are</tspan> r<tspan x="552.636px " y="294.349px ">e</tspan>peated</text>
            </g>
            <g transform="matrix(0.999998,0,0,1,0.00115966,0)">
                <text x="600.736px" y="294.349px" style="font-family:'GillSans-Bold', 'Gill Sans', sans-serif;font-weight:700;font-size:13.784px;fill:rgb(31,48,96);">stratiﬁed by</text>
            </g>
            <g transform="matrix(0.999998,0,0,1,0.000825452,0)">
                <text x="427.606px" y="309.943px" style="font-family:'GillSans-Bold', 'Gill Sans', sans-serif;font-weight:700;font-size:13.784px;fill:rgb(31,48,96);">sex</text>
            </g>
            <g transform="matrix(0.999998,0,0,1,0.000800558,0)">
                <text x="414.711px" y="329.143px" style="font-family:'ArialMT', 'Arial', sans-serif;font-size:13.784px;">•</text>
            </g>
            <g transform="matrix(0.999998,0,0,1,0.00082473,0)">
                <text x="427.233px" y="329.143px" style="font-family:'GillSans', 'Gill Sans', sans-serif;font-size:13.784px;">Massiv<tspan x="463.267px " y="329.143px ">e</tspan> parallelism implemented using</text>
            </g>
            <g transform="matrix(0.999998,0,0,1,0.000825452,0)">
                <text x="427.606px" y="344.738px" style="font-family:'GillSans', 'Gill Sans', sans-serif;font-size:13.784px;">Zer<tspan x="448.228px " y="344.738px ">o</tspan>MQ f<tspan x="485.084px " y="344.738px ">o</tspan>r inter<tspan x="527.438px " y="344.738px ">-</tspan>pr<tspan x="543.9px " y="344.738px ">o</tspan>cess comm<tspan x="613.344px " y="344.738px ">u</tspan>nication</text>
            </g>
        </g>
        <g transform="matrix(0.999998,0,0,1,101.057,-43.2006)">
            <text x="748.087px" y="72.719px" style="font-family:'GillSans-Bold', 'Gill Sans', sans-serif;font-weight:700;font-size:14px;fill:rgb(31,48,96);">https://exphewas.ca/</text>
        </g>
        <g transform="matrix(0.0019685,0,0,-0.0019685,0,406.632)">
            <rect x="353762" y="44806.9" width="146534" height="116955" style="fill-opacity:0;"/>
        </g>
        <g transform="matrix(1,0,0,1,-9.83665,-41.6784)">
            <g transform="matrix(0.999998,0,0,1,0.00137145,0)">
                <text x="710.451px" y="103.755px" style="font-family:'Arial-BoldMT', 'Arial', sans-serif;font-weight:700;font-size:13.784px;fill:rgb(31,48,96);">•</text>
            </g>
            <g transform="matrix(0.999998,0,0,1,0.00138077,0)">
                <text x="722.973px" y="103.755px" style="font-family:'GillSans-Bold', 'Gill Sans', sans-serif;font-weight:700;font-size:13.784px;fill:rgb(31,48,96);"><tspan x="722.973px " y="103.755px ">Q</tspan>Q plot</text>
            </g>
            <g transform="matrix(0.999998,0,0,1,0.00150344,0)">
                <text x="782.651px" y="103.755px" style="font-family:'GillSans', 'Gill Sans', sans-serif;font-size:13.784px;">to detect statistical inﬂation or pleiotr<tspan x="995.398px 1003px 1009.41px " y="103.755px 103.755px 103.755px ">opy</tspan></text>
            </g>
            <g transform="matrix(0.999998,0,0,1,0.00137145,0)">
                <text x="710.451px" y="126.242px" style="font-family:'ArialMT', 'Arial', sans-serif;font-size:13.784px;">•</text>
            </g>
            <g transform="matrix(0.999998,0,0,1,0.00139563,0)">
                <text x="722.973px" y="126.242px" style="font-family:'GillSans', 'Gill Sans', sans-serif;font-size:13.784px;">Statistics to help</text>
            </g>
            <g transform="matrix(0.999998,0,0,1,0.0015806,0)">
                <text x="818.794px" y="126.242px" style="font-family:'GillSans-Bold', 'Gill Sans', sans-serif;font-weight:700;font-size:13.784px;fill:rgb(31,48,96);">control for false positives</text>
            </g>
            <g transform="matrix(0.999998,0,0,1,0.00192457,0)">
                <text x="996.979px" y="126.242px" style="font-family:'GillSans', 'Gill Sans', sans-serif;font-size:13.784px;">:</text>
            </g>
            <g transform="matrix(0.999998,0,0,1,0.00139563,0)">
                <text x="722.972px" y="141.836px" style="font-family:'GillSans', 'Gill Sans', sans-serif;font-size:13.784px;">Bonf<tspan x="748.541px 755.143px 760.467px 765.582px " y="141.836px 141.836px 141.836px 141.836px ">erro</tspan>ni</text>
            </g>
            <g transform="matrix(0.999998,0,-0.2,1,28.3687,0)">
                <text x="786.953px" y="141.836px" style="font-family:'GillSans', 'Gill Sans', sans-serif;font-size:13.784px;">P</text>
            </g>
            <g transform="matrix(0.999998,0,0,1,0.0015327,0)">
                <text x="793.98px" y="141.836px" style="font-family:'GillSans', 'Gill Sans', sans-serif;font-size:13.784px;">-values and</text>
            </g>
            <g transform="matrix(0.999998,0,-0.2,1,28.3689,0)">
                <text x="859.68px" y="141.836px" style="font-family:'GillSans', 'Gill Sans', sans-serif;font-size:13.784px;">Q</text>
            </g>
            <g transform="matrix(0.999998,0,0,1,0.00168143,0)">
                <text x="871.027px" y="141.836px" style="font-family:'GillSans', 'Gill Sans', sans-serif;font-size:13.784px;">-values f<tspan x="916.386px " y="141.836px ">o</tspan>r false discov<tspan x="996.031px 1002.63px 1008.5px " y="141.836px 141.836px 141.836px ">ery</tspan></text>
            </g>
            <g transform="matrix(0.999998,0,0,1,0.00139563,0)">
                <text x="722.972px" y="157.431px" style="font-family:'GillSans', 'Gill Sans', sans-serif;font-size:13.784px;">rate contr<tspan x="779.575px " y="157.431px ">o</tspan>l</text>
            </g>
            <g transform="matrix(0.999998,0,0,1,0.00137145,0)">
                <text x="710.451px" y="179.917px" style="font-family:'Arial-BoldMT', 'Arial', sans-serif;font-weight:700;font-size:13.784px;fill:rgb(31,48,96);">•</text>
            </g>
            <g transform="matrix(0.999998,0,0,1,0.00138077,0)">
                <text x="722.973px" y="179.917px" style="font-family:'GillSans-Bold', 'Gill Sans', sans-serif;font-weight:700;font-size:13.784px;fill:rgb(31,48,96);"><tspan x="722.973px " y="179.917px ">E</tspan>nrichment analysis</text>
            </g>
            <g transform="matrix(0.999998,0,0,1,0.00166603,0)">
                <text x="866.915px" y="179.917px" style="font-family:'GillSans', 'Gill Sans', sans-serif;font-size:13.784px;">of genes <tspan x="916.979px " y="179.917px ">a</tspan>ssociated with</text>
            </g>
            <g transform="matrix(0.999998,0,0,1,0.00139629,0)">
                <text x="723.316px" y="195.512px" style="font-family:'GillSans', 'Gill Sans', sans-serif;font-size:13.784px;">phenotypes using g:Pr<tspan x="844.321px " y="195.512px ">o</tspan>ﬁler (includes gene ontolog<tspan x="1004.1px 1009.03px " y="195.512px 195.512px ">y,</tspan></text>
            </g>
            <g transform="matrix(0.999998,0,0,1,0.00139629,0)">
                <text x="723.316px" y="211.107px" style="font-family:'GillSans', 'Gill Sans', sans-serif;font-size:13.784px;">KEGG and human phenotype ontolog<tspan x="934.44px " y="211.107px ">y</tspan>)</text>
            </g>
            <g transform="matrix(0.999998,0,0,1,0.00137145,0)">
                <text x="710.451px" y="233.593px" style="font-family:'ArialMT', 'Arial', sans-serif;font-size:13.784px;">•</text>
            </g>
            <g transform="matrix(0.999998,0,0,1,0.00139563,0)">
                <text x="722.973px" y="233.593px" style="font-family:'GillSans', 'Gill Sans', sans-serif;font-size:13.784px;">Drug target enrichment anal<tspan x="881.197px " y="233.593px ">y</tspan>sis</text>
            </g>
            <g transform="matrix(0.999998,0,0,1,0.00137145,0)">
                <text x="710.451px" y="256.08px" style="font-family:'ArialMT', 'Arial', sans-serif;font-size:13.784px;">•</text>
            </g>
            <g transform="matrix(0.999998,0,0,1,0.00139563,0)">
                <text x="722.973px" y="256.08px" style="font-family:'GillSans', 'Gill Sans', sans-serif;font-size:13.784px;">Interactiv<tspan x="775.255px " y="256.08px ">e</tspan></text>
            </g>
            <g transform="matrix(0.999998,0,0,1,0.00151676,0)">
                <text x="785.723px" y="256.08px" style="font-family:'GillSans-Bold', 'Gill Sans', sans-serif;font-weight:700;font-size:13.784px;fill:rgb(31,48,96);">cis-Mendelian Randomization</text>
            </g>
            <g transform="matrix(0.999998,0,0,1,0.00139629,0)">
                <text x="723.316px" y="271.674px" style="font-family:'GillSans', 'Gill Sans', sans-serif;font-size:13.784px;">anal<tspan x="744.859px " y="271.674px ">y</tspan>ses</text>
            </g>
            <g transform="matrix(0.999998,0,0,1,0.00137145,0)">
                <text x="710.451px" y="294.161px" style="font-family:'ArialMT', 'Arial', sans-serif;font-size:13.784px;">•</text>
            </g>
            <g transform="matrix(0.999998,0,0,1,0.00139563,0)">
                <text x="722.973px" y="294.161px" style="font-family:'GillSans', 'Gill Sans', sans-serif;font-size:13.784px;">Application Pr<tspan x="801.994px " y="294.161px ">o</tspan>gramming Interface f<tspan x="923.8px " y="294.161px ">o</tspan>r pr<tspan x="952.701px " y="294.161px ">o</tspan>grammatic</text>
            </g>
            <g transform="matrix(0.999998,0,0,1,0.00139563,0)">
                <text x="722.972px" y="309.755px" style="font-family:'GillSans', 'Gill Sans', sans-serif;font-size:13.784px;">access in an<tspan x="788.21px " y="309.755px ">y</tspan> language</text>
            </g>
            <g transform="matrix(0.999998,0,0,1,0.00137145,0)">
                <text x="710.451px" y="332.242px" style="font-family:'ArialMT', 'Arial', sans-serif;font-size:13.784px;">•</text>
            </g>
            <g transform="matrix(0.999998,0,0,1,0.00139563,0)">
                <text x="722.973px" y="332.242px" style="font-family:'GillSans', 'Gill Sans', sans-serif;font-size:13.784px;">Distinct <tspan x="770.71px 776.472px " y="332.242px 332.242px ">ve</tspan>rsioning <tspan x="831.094px 834.405px " y="332.242px 332.242px ">fo</tspan>r <tspan x="851.411px 858.303px 863.418px 870.889px " y="332.242px 332.242px 332.242px 332.242px ">brow</tspan>ser <tspan x="902.11px " y="332.242px ">a</tspan>nd <tspan x="925.853px " y="332.242px ">d</tspan>ata <tspan x="953.177px 958.36px " y="332.242px 332.242px ">re</tspan>leases,</text>
            </g>
            <g transform="matrix(0.999998,0,0,1,0.00139629,0)">
                <text x="723.316px" y="347.836px" style="font-family:'GillSans', 'Gill Sans', sans-serif;font-size:13.784px;">hosting <tspan x="767.445px " y="347.836px ">o</tspan>n <tspan x="785.885px " y="347.836px ">n</tspan>ational <tspan x="833.616px " y="347.836px ">c</tspan>loud <tspan x="868.141px " y="347.836px ">c</tspan>omputation <tspan x="942.719px " y="347.836px ">i</tspan>nfrastructur<tspan x="1012.37px " y="347.836px ">e</tspan></text>
            </g>
            <g transform="matrix(0.999998,0,0,1,0.00139629,0)">
                <text x="723.316px" y="363.431px" style="font-family:'GillSans', 'Gill Sans', sans-serif;font-size:13.784px;">(Compute <tspan x="784.682px " y="363.431px ">C</tspan>anada),<tspan x="832.104px 836.046px " y="363.431px 363.431px "> o</tspan>pen <tspan x="867.981px " y="363.431px ">s</tspan>our<tspan x="892.897px " y="363.431px ">c</tspan>e <tspan x="909.479px " y="363.431px ">(</tspan>MIT <tspan x="940.41px " y="363.431px ">l</tspan>icense)</text>
            </g>
        </g>
    </g>
    <g transform="matrix(0.462052,0,0,0.462052,4.68833,183.019)">
        <g>
            <g>
                <g>
                    <path d="M46.1,33.8C45.5,33.8 45,33.6 44.5,33.3L37.8,29C32.3,25.5 29,19.5 29,13L29,7C29,5.3 30.3,4 32,4C33.7,4 35,5.3 35,7L35,13C35,17.5 37.2,21.6 41,24L47.7,28.3C49.1,29.2 49.5,31 48.6,32.4C48.1,33.3 47.1,33.8 46.1,33.8Z" style="fill:rgb(31,47,96);fill-rule:nonzero;"/>
                </g>
            </g>
        </g>
        <g transform="matrix(0.875981,0,0,0.875981,3.59646,0.496078)">
            <path d="M37.8,80L44.5,84.3C45,84.6 45.6,84.8 46.1,84.8C47.1,84.8 48.1,84.3 48.6,83.4C49.5,82 49.1,80.1 47.7,79.3L41,75C37.6,72.8 35.4,69.3 35.1,65.3C34.7,61.3 36.1,57.4 39,54.6C39.8,53.8 40.9,53.1 42.2,52.4L87,29.9C88.9,29 90.4,27.9 91.7,26.7C95.4,23.1 97.5,18.3 97.5,13L97.5,7C97.5,5.3 96.2,4 94.5,4C92.8,4 91.5,5.3 91.5,7L91.5,10L48,10C46.3,10 45,11.3 45,13C45,14.7 46.3,16 48,16L91.1,16C90.6,18.3 89.5,20.3 87.8,22L58,22C56.3,22 55,23.3 55,25C55,26.7 56.3,28 58,28L77.4,28L39.5,47.1C37.6,48 36.1,49.1 34.8,50.3C30.6,54.3 28.5,60 29.1,65.9C29.7,71.7 32.8,76.9 37.8,80Z" style="fill:rgb(31,47,96);fill-rule:nonzero;"/>
            <path d="M91.7,77.7C95.4,74.2 97.5,69.2 97.5,64C97.5,57.5 94.2,51.5 88.7,48L82,43.7C80.6,42.8 78.7,43.2 77.9,44.6C77,46 77.4,47.9 78.8,48.7L85.5,53C86.4,53.6 87.2,54.2 87.9,55L58,55C56.3,55 55,56.3 55,58C55,59.7 56.3,61 58,61L91.1,61C91.3,62 91.5,63 91.5,64C91.5,65 91.4,66 91.1,67L48,67C46.3,67 45,68.3 45,70C45,71.7 46.3,73 48,73L87.8,73C87.7,73.1 87.6,73.2 87.5,73.4C86.7,74.2 85.6,74.9 84.3,75.6L39.5,98.1C37.6,99 36.1,100.1 34.8,101.3C31.1,104.9 29,109.7 29,115L29,115.1L29.2,121.1C29.3,122.7 30.6,124 32.2,124L32.3,124C34,123.9 35.2,122.5 35.2,120.9L35,115C35,111.4 36.4,108.1 39,105.7C39.8,104.9 40.9,104.2 42.2,103.5L87,80.9C88.9,79.9 90.4,78.9 91.7,77.7Z" style="fill:rgb(31,47,96);fill-rule:nonzero;"/>
            <path d="M98,114.8C98.3,108 95,101.7 89.2,98L82.5,93.7C81.1,92.8 79.2,93.2 78.4,94.6C77.5,96 77.9,97.9 79.3,98.7L81.3,100L68,100C66.3,100 65,101.3 65,103C65,104.7 66.3,106 68,106L89.2,106C90.6,107.7 91.5,109.8 91.8,112L48,112C46.3,112 45,113.3 45,115C45,116.7 46.3,118 48,118L92,118L92,121C92,122.7 93.3,124 95,124C96.7,124 98,122.6 98,121L98,114.8Z" style="fill:rgb(31,47,96);fill-rule:nonzero;"/>
        </g>
    </g>
    <g transform="matrix(0.79395,0,0,0.79395,380.439,20.9567)">
        <rect x="7.5" y="12.4" width="33" height="4.2" style="fill:rgb(31,47,96);"/>
        <path d="M3.4,0L3.4,10.3L44.5,10.3L44.5,0L3.4,0ZM10.8,6.2L8,6.2L8,4.1L10.8,4.1L10.8,6.2ZM16.7,6.2L13.9,6.2L13.9,4.1L16.7,4.1L16.7,6.2ZM22.5,6.2L19.7,6.2L19.7,4.1L22.5,4.1L22.5,6.2ZM28.3,6.2L25.5,6.2L25.5,4.1L28.3,4.1L28.3,6.2ZM34.2,6.2L31.4,6.2L31.4,4.1L34.2,4.1L34.2,6.2ZM40,6.2L37.2,6.2L37.2,4.1L40,4.1L40,6.2Z" style="fill:rgb(31,47,96);fill-rule:nonzero;"/>
        <path d="M3.4,29.1L44.5,29.1L44.5,18.8L3.4,18.8L3.4,29.1ZM37.2,22.9L40,22.9L40,25L37.2,25L37.2,22.9ZM31.3,22.9L34.1,22.9L34.1,25L31.3,25L31.3,22.9ZM25.5,22.9L28.3,22.9L28.3,25L25.5,25L25.5,22.9ZM19.7,22.9L22.5,22.9L22.5,25L19.7,25L19.7,22.9ZM13.8,22.9L16.6,22.9L16.6,25L13.8,25L13.8,22.9ZM8,22.9L10.8,22.9L10.8,25L8,25L8,22.9Z" style="fill:rgb(31,47,96);fill-rule:nonzero;"/>
        <path d="M40,39.5L40,34.5L25.1,34.5L25.1,31.1L23,31.1L23,34.5L8,34.5L8,39.5C6.1,40 4.8,41.7 4.8,43.7C4.8,46.1 6.7,48 9.1,48C11.5,48 13.4,46.1 13.4,43.7C13.4,41.7 12,40 10.2,39.5L10.2,36.7L23,36.7L23,39.5C21.1,40 19.8,41.7 19.8,43.7C19.8,46.1 21.7,48 24.1,48C26.5,48 28.4,46.1 28.4,43.7C28.4,41.7 27,40 25.2,39.5L25.2,36.7L38,36.7L38,39.5C36.1,40 34.8,41.7 34.8,43.7C34.8,46.1 36.7,48 39.1,48C41.5,48 43.4,46.1 43.4,43.7C43.2,41.7 41.8,40 40,39.5ZM11.2,43.7C11.2,44.9 10.2,45.9 9,45.9C7.8,45.9 6.8,44.9 6.8,43.7C6.8,42.5 7.8,41.5 9,41.5C10.2,41.5 11.2,42.5 11.2,43.7ZM26.2,43.7C26.2,44.9 25.2,45.9 24,45.9C22.8,45.9 21.8,44.9 21.8,43.7C21.8,42.5 22.8,41.5 24,41.5C25.2,41.5 26.2,42.5 26.2,43.7ZM38.9,45.9C37.7,45.9 36.7,44.9 36.7,43.7C36.7,42.5 37.7,41.5 38.9,41.5C40.1,41.5 41.1,42.5 41.1,43.7C41.1,44.9 40.1,45.9 38.9,45.9Z" style="fill:rgb(31,47,96);fill-rule:nonzero;"/>
    </g>
    <g transform="matrix(0.646352,0,0,0.646352,761.887,13.0077)">
        <g transform="matrix(0.543977,0,0,0.596531,-117.952,-118.381)">
            <rect x="225.337" y="207.95" width="257.968" height="62.498" style="fill:rgb(31,47,96);"/>
        </g>
        <g transform="matrix(0.596531,0,0,0.596531,-126.577,-117.541)">
            <g transform="matrix(50,0,0,50,229.618,254.674)">
                <path d="M0.075,-0.682L0.462,-0.682L0.462,-0.595L0.173,-0.595L0.173,-0.387L0.452,-0.387L0.452,-0.3L0.173,-0.3L0.173,-0.088L0.471,-0.088L0.471,-0.001L0.075,-0.001L0.075,-0.682Z" style="fill:rgb(248,248,249);fill-rule:nonzero;"/>
            </g>
            <g transform="matrix(50,0,0,50,254.618,254.674)">
                <path d="M0.373,-0.449L0.487,-0.449L0.302,-0.228L0.5,-0L0.386,-0L0.245,-0.161L0.112,-0L0,-0L0.189,-0.228L0,-0.449L0.112,-0.449L0.245,-0.295L0.373,-0.449Z" style="fill:rgb(248,248,249);fill-rule:nonzero;"/>
            </g>
            <g transform="matrix(50,0,0,50,279.618,254.674)">
                <path d="M0.07,-0L0.07,-0.683L0.286,-0.683C0.351,-0.683 0.403,-0.666 0.442,-0.63C0.481,-0.595 0.5,-0.548 0.5,-0.489C0.5,-0.449 0.49,-0.414 0.47,-0.383C0.45,-0.353 0.423,-0.33 0.389,-0.317C0.354,-0.303 0.305,-0.296 0.24,-0.296L0.168,-0.296L0.168,-0L0.07,-0ZM0.269,-0.596L0.168,-0.596L0.168,-0.383L0.275,-0.383C0.315,-0.383 0.345,-0.392 0.367,-0.411C0.388,-0.43 0.399,-0.456 0.399,-0.491C0.399,-0.561 0.356,-0.596 0.269,-0.596Z" style="fill:rgb(248,248,249);fill-rule:nonzero;"/>
            </g>
            <g transform="matrix(50,0,0,50,305.106,254.674)">
                <path d="M0.061,-0.682L0.15,-0.682L0.15,-0.39C0.187,-0.435 0.233,-0.458 0.288,-0.458C0.318,-0.458 0.345,-0.451 0.369,-0.436C0.392,-0.421 0.41,-0.4 0.422,-0.374C0.433,-0.347 0.439,-0.308 0.439,-0.256L0.439,-0L0.35,-0L0.35,-0.278C0.35,-0.311 0.342,-0.337 0.326,-0.357C0.31,-0.377 0.289,-0.387 0.262,-0.387C0.243,-0.387 0.224,-0.382 0.207,-0.372C0.19,-0.362 0.171,-0.345 0.15,-0.322L0.15,-0L0.061,-0L0.061,-0.682Z" style="fill:rgb(248,248,249);fill-rule:nonzero;"/>
            </g>
            <g transform="matrix(50,0,0,50,330.106,254.674)">
                <path d="M0.446,-0.217L0.13,-0.217C0.132,-0.174 0.147,-0.14 0.173,-0.114C0.2,-0.089 0.234,-0.076 0.276,-0.076C0.334,-0.076 0.389,-0.094 0.438,-0.131L0.438,-0.044C0.411,-0.026 0.384,-0.013 0.357,-0.005C0.33,0.003 0.298,0.007 0.262,0.007C0.213,0.007 0.173,-0.003 0.142,-0.024C0.111,-0.044 0.087,-0.072 0.069,-0.107C0.05,-0.141 0.041,-0.181 0.041,-0.227C0.041,-0.295 0.06,-0.351 0.099,-0.394C0.138,-0.437 0.188,-0.458 0.25,-0.458C0.31,-0.458 0.357,-0.437 0.393,-0.396C0.428,-0.354 0.446,-0.298 0.446,-0.228L0.446,-0.217ZM0.132,-0.27L0.358,-0.27C0.356,-0.306 0.345,-0.333 0.326,-0.352C0.307,-0.371 0.282,-0.381 0.25,-0.381C0.218,-0.381 0.192,-0.371 0.172,-0.352C0.151,-0.333 0.138,-0.306 0.132,-0.27Z" style="fill:rgb(248,248,249);fill-rule:nonzero;"/>
            </g>
            <g transform="matrix(50,0,0,50,354.056,254.674)">
                <path d="M0.944,-0.682L1.041,-0.682L0.765,0.003L0.744,0.003L0.521,-0.552L0.296,0.003L0.275,0.003L0,-0.682L0.098,-0.682L0.286,-0.212L0.475,-0.682L0.568,-0.682L0.758,-0.212L0.944,-0.682Z" style="fill:rgb(248,248,249);fill-rule:nonzero;"/>
            </g>
            <g transform="matrix(50,0,0,50,403.153,254.674)">
                <path d="M0.345,-0.27L0.345,-0.079C0.345,-0.064 0.35,-0.056 0.361,-0.056C0.372,-0.056 0.388,-0.064 0.411,-0.08L0.411,-0.026C0.391,-0.013 0.375,-0.004 0.363,0.001C0.35,0.005 0.338,0.008 0.324,0.008C0.286,0.008 0.264,-0.007 0.257,-0.037C0.219,-0.008 0.179,0.007 0.136,0.007C0.105,0.007 0.079,-0.003 0.058,-0.024C0.037,-0.045 0.027,-0.071 0.027,-0.102C0.027,-0.13 0.037,-0.156 0.057,-0.178C0.078,-0.2 0.107,-0.218 0.144,-0.231L0.258,-0.27L0.258,-0.294C0.258,-0.348 0.231,-0.375 0.177,-0.375C0.128,-0.375 0.081,-0.35 0.035,-0.3L0.035,-0.397C0.07,-0.438 0.119,-0.458 0.184,-0.458C0.233,-0.458 0.271,-0.445 0.301,-0.42C0.311,-0.412 0.319,-0.401 0.327,-0.387C0.335,-0.374 0.34,-0.36 0.342,-0.347C0.344,-0.333 0.345,-0.308 0.345,-0.27ZM0.258,-0.089L0.258,-0.222L0.198,-0.199C0.168,-0.187 0.147,-0.175 0.134,-0.163C0.122,-0.151 0.115,-0.135 0.115,-0.117C0.115,-0.099 0.121,-0.083 0.133,-0.072C0.145,-0.06 0.16,-0.054 0.179,-0.054C0.208,-0.054 0.234,-0.066 0.258,-0.089Z" style="fill:rgb(248,248,249);fill-rule:nonzero;"/>
            </g>
            <g transform="matrix(50,0,0,50,424.491,254.674)">
                <path d="M0.041,-0.032L0.041,-0.128C0.066,-0.11 0.092,-0.096 0.118,-0.085C0.144,-0.074 0.166,-0.069 0.184,-0.069C0.203,-0.069 0.219,-0.073 0.232,-0.083C0.245,-0.092 0.252,-0.103 0.252,-0.115C0.252,-0.128 0.248,-0.139 0.239,-0.148C0.23,-0.156 0.212,-0.169 0.183,-0.185C0.126,-0.217 0.088,-0.244 0.071,-0.267C0.053,-0.289 0.044,-0.314 0.044,-0.341C0.044,-0.375 0.057,-0.403 0.084,-0.425C0.111,-0.447 0.146,-0.458 0.188,-0.458C0.232,-0.458 0.277,-0.446 0.323,-0.421L0.323,-0.333C0.271,-0.365 0.227,-0.381 0.194,-0.381C0.177,-0.381 0.163,-0.377 0.152,-0.37C0.142,-0.363 0.136,-0.353 0.136,-0.341C0.136,-0.33 0.141,-0.32 0.151,-0.311C0.16,-0.302 0.177,-0.29 0.201,-0.277L0.233,-0.259C0.308,-0.216 0.345,-0.17 0.345,-0.118C0.345,-0.081 0.331,-0.051 0.302,-0.028C0.273,-0.004 0.236,0.008 0.191,0.008C0.164,0.008 0.14,0.005 0.12,-0.001C0.099,-0.006 0.073,-0.017 0.041,-0.032Z" style="fill:rgb(248,248,249);fill-rule:nonzero;"/>
            </g>
        </g>
        <g transform="matrix(19.2983,0,0,19.2983,147.239,32.2789)">
            <path d="M0.306,-0L0.075,-0L0.075,-0.682L0.254,-0.682C0.31,-0.682 0.354,-0.675 0.386,-0.659C0.417,-0.644 0.441,-0.623 0.458,-0.597C0.475,-0.57 0.483,-0.54 0.483,-0.505C0.483,-0.438 0.448,-0.39 0.379,-0.361C0.429,-0.351 0.468,-0.331 0.498,-0.299C0.527,-0.268 0.542,-0.23 0.542,-0.186C0.542,-0.151 0.533,-0.12 0.515,-0.093C0.497,-0.065 0.471,-0.043 0.436,-0.026C0.402,-0.009 0.358,-0 0.306,-0ZM0.257,-0.595L0.173,-0.595L0.173,-0.39L0.238,-0.39C0.29,-0.39 0.327,-0.4 0.349,-0.42C0.371,-0.44 0.382,-0.465 0.382,-0.497C0.382,-0.563 0.34,-0.595 0.257,-0.595ZM0.264,-0.303L0.173,-0.303L0.173,-0.087L0.269,-0.087C0.322,-0.087 0.359,-0.091 0.378,-0.099C0.397,-0.108 0.412,-0.121 0.424,-0.138C0.435,-0.156 0.441,-0.175 0.441,-0.195C0.441,-0.216 0.435,-0.235 0.423,-0.252C0.41,-0.269 0.393,-0.282 0.371,-0.291C0.348,-0.299 0.313,-0.303 0.264,-0.303Z" style="fill:rgb(31,47,96);fill-rule:nonzero;"/>
        </g>
        <g transform="matrix(19.2983,0,0,19.2983,158.104,32.2789)">
            <path d="M0.158,-0.449L0.158,-0.346L0.163,-0.354C0.206,-0.423 0.249,-0.458 0.292,-0.458C0.326,-0.458 0.361,-0.441 0.397,-0.407L0.35,-0.329C0.319,-0.358 0.291,-0.373 0.264,-0.373C0.236,-0.373 0.211,-0.359 0.19,-0.332C0.169,-0.305 0.158,-0.272 0.158,-0.235L0.158,-0L0.069,-0L0.069,-0.449L0.158,-0.449Z" style="fill:rgb(31,47,96);fill-rule:nonzero;"/>
        </g>
        <g transform="matrix(19.2983,0,0,19.2983,165.265,32.2789)">
            <path d="M0.278,-0.45C0.346,-0.45 0.403,-0.428 0.448,-0.384C0.493,-0.34 0.516,-0.285 0.516,-0.218C0.516,-0.153 0.493,-0.099 0.447,-0.056C0.401,-0.014 0.344,0.008 0.274,0.008C0.207,0.008 0.15,-0.014 0.105,-0.057C0.06,-0.101 0.037,-0.155 0.037,-0.22C0.037,-0.286 0.06,-0.341 0.106,-0.385C0.151,-0.428 0.209,-0.45 0.278,-0.45ZM0.273,-0.37C0.23,-0.37 0.195,-0.356 0.168,-0.328C0.141,-0.3 0.127,-0.264 0.127,-0.221C0.127,-0.178 0.141,-0.143 0.169,-0.116C0.197,-0.089 0.233,-0.075 0.277,-0.075C0.32,-0.075 0.356,-0.089 0.384,-0.116C0.412,-0.144 0.426,-0.179 0.426,-0.222C0.426,-0.265 0.411,-0.3 0.382,-0.328C0.353,-0.356 0.317,-0.37 0.273,-0.37Z" style="fill:rgb(31,47,96);fill-rule:nonzero;"/>
        </g>
        <g transform="matrix(19.2983,0,0,19.2983,175.725,32.2789)">
            <path d="M0.624,-0.449L0.719,-0.449L0.521,0.008L0.493,0.008L0.36,-0.305L0.229,0.008L0.2,0.008L0,-0.449L0.095,-0.449L0.213,-0.177L0.327,-0.449L0.393,-0.449L0.507,-0.177L0.624,-0.449Z" style="fill:rgb(31,47,96);fill-rule:nonzero;"/>
        </g>
        <g transform="matrix(19.2983,0,0,19.2983,189.605,32.2789)">
            <path d="M0.041,-0.032L0.041,-0.128C0.066,-0.11 0.092,-0.096 0.118,-0.085C0.144,-0.074 0.166,-0.069 0.184,-0.069C0.203,-0.069 0.219,-0.073 0.232,-0.083C0.245,-0.092 0.252,-0.103 0.252,-0.115C0.252,-0.128 0.248,-0.139 0.239,-0.148C0.23,-0.156 0.212,-0.169 0.183,-0.185C0.126,-0.217 0.088,-0.244 0.071,-0.267C0.053,-0.289 0.044,-0.314 0.044,-0.341C0.044,-0.375 0.057,-0.403 0.084,-0.425C0.111,-0.447 0.146,-0.458 0.188,-0.458C0.232,-0.458 0.277,-0.446 0.323,-0.421L0.323,-0.333C0.271,-0.365 0.227,-0.381 0.194,-0.381C0.177,-0.381 0.163,-0.377 0.152,-0.37C0.142,-0.363 0.136,-0.353 0.136,-0.341C0.136,-0.33 0.141,-0.32 0.151,-0.311C0.16,-0.302 0.177,-0.29 0.201,-0.277L0.233,-0.259C0.308,-0.216 0.345,-0.17 0.345,-0.118C0.345,-0.081 0.331,-0.051 0.302,-0.028C0.273,-0.004 0.236,0.008 0.191,0.008C0.164,0.008 0.14,0.005 0.12,-0.001C0.099,-0.006 0.073,-0.017 0.041,-0.032Z" style="fill:rgb(31,47,96);fill-rule:nonzero;"/>
        </g>
        <g transform="matrix(19.2983,0,0,19.2983,197.03,32.2789)">
            <path d="M0.446,-0.217L0.13,-0.217C0.132,-0.174 0.147,-0.14 0.173,-0.114C0.2,-0.089 0.234,-0.076 0.276,-0.076C0.334,-0.076 0.389,-0.094 0.438,-0.131L0.438,-0.044C0.411,-0.026 0.384,-0.013 0.357,-0.005C0.33,0.003 0.298,0.007 0.262,0.007C0.213,0.007 0.173,-0.003 0.142,-0.024C0.111,-0.044 0.087,-0.072 0.069,-0.107C0.05,-0.141 0.041,-0.181 0.041,-0.227C0.041,-0.295 0.06,-0.351 0.099,-0.394C0.138,-0.437 0.188,-0.458 0.25,-0.458C0.31,-0.458 0.357,-0.437 0.393,-0.396C0.428,-0.354 0.446,-0.298 0.446,-0.228L0.446,-0.217ZM0.132,-0.27L0.358,-0.27C0.356,-0.306 0.345,-0.333 0.326,-0.352C0.307,-0.371 0.282,-0.381 0.25,-0.381C0.218,-0.381 0.192,-0.371 0.172,-0.352C0.151,-0.333 0.138,-0.306 0.132,-0.27Z" style="fill:rgb(31,47,96);fill-rule:nonzero;"/>
        </g>
        <g transform="matrix(19.2983,0,0,19.2983,206.274,32.2789)">
            <path d="M0.158,-0.449L0.158,-0.346L0.163,-0.354C0.206,-0.423 0.249,-0.458 0.292,-0.458C0.326,-0.458 0.361,-0.441 0.397,-0.407L0.35,-0.329C0.319,-0.358 0.291,-0.373 0.264,-0.373C0.236,-0.373 0.211,-0.359 0.19,-0.332C0.169,-0.305 0.158,-0.272 0.158,-0.235L0.158,-0L0.069,-0L0.069,-0.449L0.158,-0.449Z" style="fill:rgb(31,47,96);fill-rule:nonzero;"/>
        </g>
    </g>
</svg>
